<?xml version="1.0" encoding="utf-8"?>
<!-- Generator: Adobe Illustrator 26.4.1, SVG Export Plug-In . SVG Version: 6.00 Build 0)  -->
<svg version="1.1" id="Capa_1" xmlns="http://www.w3.org/2000/svg" xmlns:xlink="http://www.w3.org/1999/xlink" x="0px" y="0px"
	 viewBox="0 0 70 67" style="enable-background:new 0 0 70 67;" xml:space="preserve">
<style type="text/css">
	.st0{fill:#EEEEEE;}
</style>
<g>
	<path class="st0" d="M68.4,49.5l-8.5-14.7c-0.3-0.5-1-0.8-1.5-0.4l-10.5,5.8c-0.3,0.1-0.4,0.4-0.5,0.8c-0.1,0.3,0,0.7,0.1,0.9
		l3.5,6h-8.7v-3.6c0-0.4-0.3-0.9-0.7-1.1c-0.4-0.2-1-0.1-1.3,0.2L28.3,54c-0.2,0.2-0.4,0.5-0.4,0.9c0,0.3,0.1,0.7,0.4,0.9l11.9,10.7
		c0.2,0.2,0.5,0.3,0.8,0.3c0.2,0,0.3,0,0.4-0.1c0.4-0.2,0.7-0.7,0.7-1.1v-3.5h19.1c3.1,0,5.7-1.5,7.2-4.1
		C69.9,55.3,69.9,52.2,68.4,49.5z M50.1,41.7l8.3-4.6v0.1l3.4,5.8c0.5,1,0.5,2.2,0,3.2c-0.5,1-1.6,1.6-2.7,1.6h-5.5L50.1,41.7z
		 M66.3,56.7c-1.1,1.9-3.1,2.9-5.1,2.9H41c-0.7,0-1.2,0.5-1.2,1.2V63l-8.9-8.1l8.9-8.1V49c0,0.7,0.5,1.2,1.2,1.2h11.9
		c0.1,0,0.2,0,0.3,0H59c2.1,0,3.8-1.1,4.8-2.8c0.1-0.1,0.1-0.3,0.2-0.4l2.3,3.9C67.4,52.6,67.4,54.8,66.3,56.7z"/>
	<path class="st0" d="M19.6,20.6l10.3,6.1c0.3,0.1,0.7,0.2,0.9,0.1c0.3-0.1,0.5-0.3,0.8-0.5l3.5-6l4.4,7.5l-3.2,1.9
		c-0.4,0.2-0.7,0.7-0.5,1.2c0,0.4,0.3,0.9,0.8,1l15.3,5c0.1,0,0.2,0.1,0.3,0.1c0.2,0,0.4,0,0.5-0.1c0.3-0.2,0.5-0.4,0.5-0.8
		l3.4-15.7c0.1-0.4-0.1-1-0.4-1.2c-0.4-0.3-0.9-0.3-1.3-0.1l-3.1,1.7L42.2,4.4c-1.5-2.6-4.3-4.1-7.2-4.1c-2.9,0-5.7,1.3-7.2,3.9
		L19.2,19C18.8,19.5,19.1,20.3,19.6,20.6z M30,5.3c0.9-1.9,2.8-2.9,5-2.9s4.1,1.1,5.1,2.9l10.1,17.6c0.3,0.5,1.1,0.8,1.6,0.4l1.7-1
		l-2.5,11.8l-11.5-3.7l2-1.1c0.5-0.3,0.8-1.1,0.4-1.6l-6-10.4c-0.1-0.1-0.2-0.2-0.3-0.3l-2.8-4.9c-1-1.7-2.8-2.8-4.8-2.8
		c-0.1,0-0.3,0-0.4,0L30,5.3z M21.9,19.1l3.3-5.8c0.5-1,1.6-1.6,2.7-1.6c1.2,0,2.2,0.5,2.7,1.6l2.7,4.8l-3.3,6l-8.3-4.9L21.9,19.1z"
		/>
	<path class="st0" d="M26.7,42.2c0.4,0.2,0.9,0.2,1.3-0.1c0.3-0.3,0.5-0.8,0.4-1.2l-3.4-15.7c-0.1-0.3-0.3-0.7-0.5-0.8
		c-0.3-0.2-0.7-0.2-1-0.1l-15.3,5c-0.4,0.1-0.8,0.5-0.8,1c0,0.4,0.2,0.9,0.5,1.2l3.1,1.7L1.6,49.5c-1.5,2.6-1.5,5.8,0,8.4
		c1.4,2.5,4.1,4.1,7.2,4.1h8.3c0.2,0,0.5,0.1,0.9,0.1h6.7h0.1h1.1c0.7,0,1.2-0.5,1.2-1.2l0.2-11.9c0-0.3-0.1-0.7-0.3-0.9
		c-0.2-0.2-0.5-0.3-0.9-0.3h-6.9l4.4-7.5L26.7,42.2z M24.8,50.2l-0.2,9.5h-7.3c-1-0.1-1.7-0.7-2.3-1.5c-0.5-1-0.5-2.2,0-3.2l2.8-4.8
		H24.8z M21.9,38l-6,10.4c-0.1,0.1-0.1,0.3-0.1,0.4L13,53.7c-1,1.7-1,3.8,0,5.6c0.1,0.1,0.1,0.2,0.2,0.3H8.8c-2.2,0-4-1.1-5.1-2.9
		c-1.1-1.9-1.1-4,0-5.9l10-17.5c0.1-0.3,0.2-0.5,0.1-0.9c-0.1-0.3-0.3-0.5-0.5-0.8l-1.7-1L23,26.8l2.5,11.8l-2-1.1
		C23,37.2,22.2,37.4,21.9,38z"/>
</g>
</svg>
