<svg xmlns="http://www.w3.org/2000/svg" width="29.908" height="29.909" viewBox="0 0 29.908 29.909">
  <g id="Icon_ionic-ios-close-circle-outline" data-name="Icon ionic-ios-close-circle-outline" transform="translate(-3.375 -3.375)">
    <path id="Trazado_4456" data-name="Trazado 4456" d="M23.541,21.916l-3.789-3.789,3.789-3.789a1.149,1.149,0,0,0-1.625-1.625L18.127,16.5l-3.789-3.789a1.149,1.149,0,0,0-1.625,1.625L16.5,18.127l-3.789,3.789a1.111,1.111,0,0,0,0,1.625,1.141,1.141,0,0,0,1.625,0l3.789-3.789,3.789,3.789a1.154,1.154,0,0,0,1.625,0A1.141,1.141,0,0,0,23.541,21.916Z" transform="translate(0.202 0.202)" fill="#e20b2a"/>
    <path id="Trazado_4457" data-name="Trazado 4457" d="M18.329,5.388A12.936,12.936,0,1,1,9.177,9.177a12.856,12.856,0,0,1,9.152-3.789m0-2.013A14.954,14.954,0,1,0,33.284,18.329,14.952,14.952,0,0,0,18.329,3.375Z" transform="translate(0 0)" fill="#e20b2a"/>
  </g>
</svg>
