<?xml version="1.0" encoding="utf-8"?>
<!-- Generator: Adobe Illustrator 26.2.1, SVG Export Plug-In . SVG Version: 6.00 Build 0)  -->
<svg version="1.1" id="Capa_1" xmlns="http://www.w3.org/2000/svg" xmlns:xlink="http://www.w3.org/1999/xlink" x="0px" y="0px"
	 viewBox="0 0 164 24" style="enable-background:new 0 0 164 24;" xml:space="preserve">
<g id="a">
</g>
<g id="b">
	<g id="c">
		<g>
			<path d="M112.7,23.3c0.2-0.4,0.3-0.7,0.5-0.9c2.4-4.3,4.8-8.7,7.2-13c0.3-0.6,0.7-0.7,1.3-0.7c9.3,0,18.5,0.1,27.8,0
				c1.1,0,2.2-0.2,3.2-0.5c0.9-0.3,1.5-1,1.6-2c0-0.2-0.2-0.7-0.4-0.8c-0.7-0.2-1.4-0.3-2.1-0.3c-9.7,0-19.3,0-29,0h-1.1
				c0.2-0.4,0.2-0.7,0.4-1c0.5-0.9,1-1.9,1.5-2.8c0.3-0.6,0.7-0.7,1.3-0.7c9.8,0,19.7,0,29.5,0.1c2,0,4.1,0.3,6.1,0.6
				c0.5,0.1,1,0.3,1.5,0.5c1.7,0.8,2.4,2.2,1.9,4c-0.9,3.8-3,6.6-7.1,7.4c-0.3,0.1-0.7,0.1-1,0.2c-0.2,0-0.3,0.1-0.6,0.2
				c3,3.2,5.9,6.4,9,9.7c-0.6,0.1-0.9,0.2-1.2,0.2c-3.2,0-6.5,0-9.7,0c-0.3,0-0.8-0.2-1-0.5c-2.6-2.9-5.1-5.8-7.6-8.7
				c-0.4-0.4-0.7-0.6-1.3-0.6c-4.7,0-9.4,0.1-14.2,0.1c-0.6,0-0.9,0.2-1.1,0.7c-1.6,2.8-3.2,5.7-4.8,8.5c-0.1,0.2-0.4,0.6-0.7,0.6
				C119.2,23.3,116,23.3,112.7,23.3"/>
			<path d="M97,23.3c1.7-3.2,3.4-6.3,5.2-9.6c-0.5,0-0.7-0.1-1-0.1c-7,0-13.9,0-20.9,0c-0.6,0-0.9,0.2-1.2,0.7
				c-1.5,2.8-3.1,5.6-4.7,8.4c-0.3,0.5-0.6,0.7-1.2,0.7c-2.8,0-5.6,0-8.4,0c-1,0-1.1-0.1-0.6-0.9c3.9-7.1,7.9-14.1,11.8-21.2
				c0.3-0.5,0.6-0.7,1.2-0.7c2.8,0,5.5,0,8.3,0c0.9,0,1.1,0.2,0.6,1.1c-1.1,2-2.2,4-3.4,6c-0.1,0.3-0.3,0.5-0.4,0.9
				c0.4,0,0.7,0.1,1,0.1c7,0,14,0,21,0c0.6,0,0.9-0.2,1.1-0.7c1.2-2.2,2.4-4.5,3.6-6.7c0.2-0.4,0.5-0.6,1-0.6c2.8,0,5.7,0,8.5,0
				c0.8,0,0.9,0.2,0.5,0.9c-3.9,7.1-7.8,14.2-11.8,21.4c-0.1,0.3-0.5,0.5-0.8,0.5c-2.8,0-5.7,0-8.5,0C97.8,23.4,97.5,23.3,97,23.3"
				/>
			<path d="M42.7,18.4c-0.5,1-0.9,1.8-1.3,2.5c-0.5,0.9-0.8,2-1.5,2.5c-0.7,0.4-1.9,0.2-2.9,0.2c-7.2,0-14.5,0.1-21.7,0
				c-3.3,0-6.5-0.3-9.8-0.6c-1.1-0.1-2.2-0.5-3.2-1.1c-1.7-0.9-2.4-2.8-1.8-4.7c0.5-1.5,1.1-2.9,1.8-4.3c1.3-2.3,2.7-4.5,4-6.7
				c2-3.2,5-4.8,8.7-5.1c2.7-0.3,5.4-0.4,8.2-0.5c9-0.1,18.1,0,27.1,0c0.3,0,0.7,0,1.3,0.1c-0.3,0.3-0.4,0.5-0.6,0.5
				c-2.4,1.3-4.8,2.5-7.3,3.7c-0.3,0.1-0.7,0.2-1,0.2c-7,0-14,0-21.1,0.1c-1,0-2.1,0.2-3.1,0.5c-1.3,0.3-2.3,1.1-3,2.3
				c-1.6,2.7-3.2,5.4-4.7,8.1c-0.7,1.3-0.5,1.7,1,1.9c1.1,0.2,2.2,0.3,3.3,0.3c4.1,0,8.1,0,12.2,0c4.8,0,9.6,0,14.4,0.1
				C41.9,18.3,42.2,18.3,42.7,18.4"/>
			<path d="M68.2,9.5c-0.2,0.4-0.3,0.7-0.4,0.9c-0.8,1.5-1.6,2.9-2.4,4.4c-0.2,0.4-0.5,0.6-1,0.6c-6.9,0-13.9,0-20.8,0
				c-0.8,0-0.9-0.2-0.5-0.9c0.8-1.5,1.6-3,2.5-4.5c0.2-0.3,0.6-0.6,0.9-0.6c7,0,13.9,0,20.9,0C67.6,9.4,67.8,9.5,68.2,9.5"/>
		</g>
	</g>
</g>
</svg>
