<svg xmlns="http://www.w3.org/2000/svg" width="411.49" height="61.978" viewBox="0 0 411.49 61.978">
  <g id="LOGO_MOVILIDAD_PARA_TODOS" data-name="LOGO MOVILIDAD PARA TODOS" transform="translate(-52 -60.073)">
    <g id="Grupo_3983" data-name="Grupo 3983" transform="translate(259.9 60.073)">
      <g id="Grupo_3964" data-name="Grupo 3964" transform="translate(186.855 37.083)">
        <path id="Trazado_4177" data-name="Trazado 4177" d="M244.466,78.637v-.209a3.124,3.124,0,0,1,1.464-.628,4.276,4.276,0,0,1,1.883,1.046c.418.628,1.255.628,1.883.837a8.581,8.581,0,0,0,2.3.209,3.1,3.1,0,0,0,2.72-.418,2.515,2.515,0,0,1,1.674-.418c.628,0,.837.418,1.046.837v.418l-.209.209c-.628.209-.837.837-1.046,1.255a4.341,4.341,0,0,1-1.255,2.092c-.418.209-.628.628-.837.837a.392.392,0,0,0,0,.628,4.573,4.573,0,0,1,.628,1.046c.209.418.209.628-.209.837l-.209.209v.209c.209.628.209.628-.418.628-.209,0-.209.209-.209.418a1.258,1.258,0,0,1-.209.837c0,.418-.209.418-.628.209h-.209v.209a4.924,4.924,0,0,1,.418,1.674c.209,1.046.628,2.092.837,3.138s.628,1.883.837,2.929c.209.418-.209.837-.628,1.046a9.064,9.064,0,0,0-1.046.209h-2.3c-.628,0-.837-.209-.837-.837,0-.209.209-.628.209-.837s0-.418-.209-.418h-1.255c-.418,0-.418,0-.209.418a1.886,1.886,0,0,1,.209,1.046.555.555,0,0,1-.628.628h-3.975c-.418,0-.418-.209-.418-.418a.45.45,0,0,0-.418-.418h-2.092c-.418-.209-.418-.418-.418-.837a45.311,45.311,0,0,1,.837-5.23,11.036,11.036,0,0,1,.628-2.51c.209-.628.628-1.464.837-2.092,0-.209.209-.418,0-.628a3.878,3.878,0,0,1-.418-1.464c0-.418.209-.628.628-.418h0a.69.69,0,0,0,1.046,0c.418-.418.837-.628,1.255-1.046.209,0,.209-.209.209-.418a2.974,2.974,0,0,0-.418-1.255,1.258,1.258,0,0,1-.209-.837v-2.72c-.209-.209-.209-.209-.628,0C244.675,78.428,244.675,78.637,244.466,78.637Zm6.067,11.924c-.418.209-.628.209-.418-.418v-.628a.2.2,0,0,0-.209-.209c-.418,0-.837-.209-1.255,0a.931.931,0,0,1-1.255-.418c-.209-.209-.209-.209-.418,0a1.586,1.586,0,0,0-.418.837c-.209-.209-.418-.209-.418-.418a.392.392,0,0,0-.628,0c-.209.209-.418.209-.837.418v-.837c0-.418,0-.418-.418-.628-.209,0-.418-.209-.209-.418s.209-.418.418-.418a.392.392,0,0,0,0-.628c-.209-.209-.209-.209,0-.418l.209-.209c.209-.209.209-.418-.209-.418-.209,0-.418-.209-.628-.209s-.418,0-.418-.209v.628a.2.2,0,0,0,.209.209,1.273,1.273,0,0,1,0,1.674h0a5.933,5.933,0,0,0-.837,2.72,16.15,16.15,0,0,1-.418,3.138l-.628,3.138c0,.418,0,.418.418.418.628,0,1.046.209,1.674.209.418,0,.628,0,.628-.418.209-1.046.209-2.092.418-3.138a1.537,1.537,0,0,1,.418-1.255v.209c-.209,1.674-.209,3.347-.418,5.021,0,.418,0,.418.418.418h2.72c.837,0,1.046-.209.837-1.046a16.148,16.148,0,0,1-.418-3.138,1.567,1.567,0,0,1,.209-1.046,2.088,2.088,0,0,1,1.046-.837h.628a3.88,3.88,0,0,1,1.464,2.51,4.721,4.721,0,0,1-.418,3.347c-.209.209,0,.418.209.418h1.674a3.941,3.941,0,0,0,1.674-.418c.209,0,.418-.209.209-.418-.209-.837-.418-1.464-.628-2.3l-1.255-4.393c-.209-.628-.209-.628-.837-.209h0C251.369,91.189,250.951,91.189,250.532,90.561Zm-4.393-1.255a4.574,4.574,0,0,1,.628-1.046c0-.209.209-.209.418-.209,0,.209.209.209.209.418.209.209.209.418.418.628.209,0,.418-.209.628-.209a.2.2,0,0,1,.209-.209h.209c.209.418.418.209.628.209.418,0,.628.209.628.418v.628c.209-.209.418-.209.628-.418v.418c0,.418.209.418.418.209.209,0,.418-.209.628-.209s.418-.209.418-.628.209-.418.418-.209.209,0,.209-.209V88.26a.73.73,0,0,1,.209-.418c.418-.209.418-.418.209-.628,0-.209,0-.418-.209-.418-.209-1.046-.418-1.674-1.883-1.674H249.7a.769.769,0,0,1-.628-.209,2.889,2.889,0,0,0-.837-.628,2.033,2.033,0,0,0-1.883-.209c-.418.209-1.046.418-1.464.628s-.418.209-.418.628c.209.209,0,.418-.209.628-.209,0-.209.209-.209.418-.209.418-.209,1.046-.418,1.464a.2.2,0,0,0,.209.209c.418,0,.418.209.418.418,0,.418,0,.418.418.209s.628,0,.628.418C245.93,89.1,246.139,89.1,246.139,89.306Zm4.393-4.812h1.883c.418,0,.418-.209.418-.628-.209-.837-.209-1.255-1.464-1.255h-.628c-.418,0-.418-.209-.209-.418l1.255-1.255.628-.628h-.209a12.243,12.243,0,0,0-2.72-.418c-.209,0-.418,0-.209.209v.628h-.209c-.209-.209-.418-.628-.628-.837-.418.209-.628.209-.837.418a.2.2,0,0,0-.209.209,12.8,12.8,0,0,0-1.046,2.51c-.209.209,0,.418.209.418h1.255a2.259,2.259,0,0,1,1.674.837A2.275,2.275,0,0,0,250.532,84.494Zm-2.3,10.251h0v1.046a.45.45,0,0,0,.418.418A4.607,4.607,0,0,0,250.323,96c.418,0,.418,0,.628-.418a4.8,4.8,0,0,0-.837-2.929l-.209-.209a1.374,1.374,0,0,0-1.674,1.046C248.022,94.117,248.231,94.327,248.231,94.745Zm9-14.853a1.087,1.087,0,0,0-.837-.418,6.108,6.108,0,0,0-1.883.418c-.209,0-.209.209-.209.418,0,.628-.209,1.255-.209,1.883,0,.418-.209.837-.209,1.255v.418c.209,0,.209,0,.418-.209l.209-.209c.418-.628.628-1.046,1.046-1.674.209-.418.418-1.255,1.046-1.464C256.808,80.1,257.017,79.892,257.227,79.892ZM246.348,82.4c.418-.418.418-.628,0-1.046a.29.29,0,0,1,0-.418c0-.209.209-.418.209-.628.209-.418.628-.837.837-1.255,0-.209.209-.418,0-.418a3.123,3.123,0,0,0-1.464-.628c-.209,0-.418,0-.418.209v2.72C245.721,81.775,245.93,82.193,246.348,82.4Zm6.9,1.046h0a15.407,15.407,0,0,0,.837-2.929l-.209-.209h-.418a11.6,11.6,0,0,0-1.674,1.255c-.209,0-.209.209-.418.628A1.83,1.83,0,0,1,253.252,83.448Z" transform="translate(-240.7 -77.8)"/>
        <path id="Trazado_4178" data-name="Trazado 4178" d="M245.046,84.964h-.418a.555.555,0,0,1-.628-.628c0-.418.209-.628.628-.837a2.653,2.653,0,0,1,1.255.209c.209.209.418.418.209.837,0,.209-.209.418-.628.418Z" transform="translate(-237.096 -71.576)"/>
        <path id="Trazado_4179" data-name="Trazado 4179" d="M245.6,81.5h.209c.418,0,.628,0,.628.418a.92.92,0,0,1-.209,1.046,4.573,4.573,0,0,1-1.046.628c-.209,0-.418,0-.418-.209a1.586,1.586,0,0,0-.418-.837c-.209-.628,0-.837.628-.837A1.619,1.619,0,0,1,245.6,81.5Z" transform="translate(-236.81 -73.76)"/>
        <path id="Trazado_4180" data-name="Trazado 4180" d="M246,80.97c0,.418-.209.628-.418.418-.209,0-.209-.418,0-.628,0-.418.209-.628.418-.418C246,80.343,246.209,80.761,246,80.97Z" transform="translate(-235.54 -75.113)"/>
        <path id="Trazado_4181" data-name="Trazado 4181" d="M245.1,80.77c0,.418-.209.628-.418.418-.209,0-.209-.418,0-.628,0-.418.209-.628.418-.418C245.1,80.143,245.309,80.561,245.1,80.77Z" transform="translate(-236.523 -75.331)"/>
      </g>
      <g id="Grupo_3972" data-name="Grupo 3972" transform="translate(0 1.924)">
        <g id="Grupo_3970" data-name="Grupo 3970">
          <path id="Trazado_4182" data-name="Trazado 4182" d="M162.818,63.9c-.209,0-.418.418-.418.837s.209.837.418.837.418-.418.418-.837S163.028,63.9,162.818,63.9Z" transform="translate(-139.346 -57.819)"/>
          <path id="Trazado_4183" data-name="Trazado 4183" d="M165.118,63.9c-.209,0-.418.418-.418.837s.209.837.418.837.418-.418.418-.837S165.328,63.9,165.118,63.9Z" transform="translate(-136.835 -57.819)"/>
          <g id="Grupo_3965" data-name="Grupo 3965" transform="translate(22.217 10.179)">
            <path id="Trazado_4184" data-name="Trazado 4184" d="M165.766,69.083A3.731,3.731,0,0,1,162,66.573c0-.209,0-.418.209-.418s.418,0,.418.209a2.787,2.787,0,0,0,2.929,2.092,3.025,3.025,0,0,0,3.138-2.3c0-.209.209-.418.418-.209.209,0,.418.209.209.418C169.322,67.828,167.648,69.083,165.766,69.083Z" transform="translate(-162 -65.859)"/>
          </g>
          <path id="Trazado_4185" data-name="Trazado 4185" d="M160.4,64.318l.209.209c.209,0,.209-.209.418-.418l-.209-.209Z" transform="translate(-141.53 -57.819)" fill="#fff"/>
          <path id="Trazado_4186" data-name="Trazado 4186" d="M153.682,73.482Z" transform="translate(-149.037 -47.527)" fill="#fff"/>
          <path id="Trazado_4187" data-name="Trazado 4187" d="M160.4,64.318l.209.209c.209,0,.209-.209.418-.418l-.209-.209Z" transform="translate(-141.53 -57.819)" fill="#fff"/>
          <path id="Trazado_4188" data-name="Trazado 4188" d="M153.618,74.237,153.2,73.4A1.586,1.586,0,0,1,153.618,74.237Z" transform="translate(-149.392 -47.445)" fill="#fff"/>
          <path id="Trazado_4189" data-name="Trazado 4189" d="M154.711,76.909c.209.209.209.628.418.837a.2.2,0,0,0,.209.209.45.45,0,0,0,.418-.418,1.579,1.579,0,0,0,.209-1.674v-.209c0-.418-1.046-3.766-1.046-3.766a9.06,9.06,0,0,0-.209-1.046c-.209-1.046-.209-1.046-1.255-.418-.209.209-.418.209-.628.418a1.01,1.01,0,0,0-.209,1.464l1.883,3.766C154.5,76.49,154.711,76.7,154.711,76.909Z" transform="translate(-150.276 -51.163)"/>
          <path id="Trazado_4190" data-name="Trazado 4190" d="M155.446,73.509a7.847,7.847,0,0,0,2.092-.209h2.092a2.4,2.4,0,0,1,1.883,1.255s.209.418,0,.418c-.209.209-.837.209-1.046.209H154.4Z" transform="translate(-148.082 -47.554)"/>
          <path id="Trazado_4191" data-name="Trazado 4191" d="M162.537,62.8h0a2.887,2.887,0,0,0-.837.628A2.887,2.887,0,0,1,162.537,62.8Z" transform="translate(-140.111 -59.02)" fill="#fff"/>
          <path id="Trazado_4192" data-name="Trazado 4192" d="M160.4,64.318l.209.209c.209,0,.209-.209.418-.418l-.209-.209Z" transform="translate(-141.53 -57.819)"/>
          <path id="Trazado_4193" data-name="Trazado 4193" d="M170.877,70.84a7.028,7.028,0,0,0,1.046,2.929c.418.418.837,1.046,1.255,1.255a9.4,9.4,0,0,0,2.51,1.255c.418.209,1.046.209,1.464.418.837.209.209.837-.209,1.255-.628.418-1.464.837-2.092,1.255s-1.464.628-2.092,1.046c-1.464.837-2.72,1.464-4.184,2.3a.764.764,0,0,0-.418,1.046,1.006,1.006,0,0,1-.418,1.255c-.628.209-1.046.628-1.674.837a1.239,1.239,0,0,1-1.464-.209,1.387,1.387,0,0,0-1.464-.418h-3.556c-.418,0-.628,0-.628-.418-.209-.837-.628-1.674-.837-2.51-.418-1.255-.628-2.72-1.046-3.975a.764.764,0,0,0-1.046-.418c-.837.418-1.674,1.046-2.51,1.464a6.357,6.357,0,0,0-1.464,1.046c-.209.209-.837.418-.628,1.046a17.63,17.63,0,0,0,1.255,2.929c.209.209.209.418.418.628l2.51,4.393a1.147,1.147,0,0,0,1.255.837c1.464,0,3.138.209,4.6.209h6.694a.555.555,0,0,0,.628-.628c0-.837-1.046-1.255-1.674-1.674-.209-.209-.418-.418-.418-.628a.668.668,0,0,1,.628-.628c.418-.209,1.046-.418,1.464-.628s.628,0,.837.209.209.418.418.628a1.016,1.016,0,0,0,1.255.628c.209,0,.628-.418.837-.628.418-.209.628-.628,1.046-.837s.628,0,.628.418c0,1.674.209,3.347.209,5.021a7.117,7.117,0,0,0,.209,2.092,6.964,6.964,0,0,1-.209,2.929,25.3,25.3,0,0,0-1.046,3.766c-.418,1.464-.628,2.929-1.046,4.6l-1.255,4.393c-.209.837-.418,1.674-.628,2.3l-1.255,2.51a2.068,2.068,0,0,0,.837,2.929c1.464.628,4.6,1.255,5.439-.628a2.641,2.641,0,0,0-.209-2.51,1.284,1.284,0,0,1-.209-1.255,20.566,20.566,0,0,0,1.046-3.347,47.924,47.924,0,0,0,1.464-5.858c.209-1.046.628-1.883.837-2.929.209-.628.209-1.255.418-1.674,0-.209.209-.418.418-.628a.648.648,0,0,1,.418-.209c.209,0,.209.209.209.418v9.832c0,1.046-.209,2.092-.209,3.138a1.258,1.258,0,0,0,.209.837c.418.418,1.046,0,1.046.837v2.3a3,3,0,0,0,.837,2.092,3.1,3.1,0,0,0,2.72.418,4.987,4.987,0,0,0,2.3-1.255,2.671,2.671,0,0,0,.418-2.51c-.209-.418-.418-.628-.628-1.046-.418-.418-1.046-.418-1.255-1.046a3.1,3.1,0,0,1-.209-1.464,13.811,13.811,0,0,0-.209-2.929c0-1.255-.209-2.51-.209-3.556,0-1.464-.209-2.929-.209-4.393a7.848,7.848,0,0,0-.209-2.092,4.083,4.083,0,0,0-.209-1.464,2.953,2.953,0,0,1,.209-1.883,1.886,1.886,0,0,0,.209-1.046c0-1.464-.209-2.929-.209-4.184s-.209-2.72-.209-3.975c0-.418.209-.628.628-.418l.628.628c.418.418,1.255,1.464,2.092.837.418-.209.418-1.255.628-1.464a2.875,2.875,0,0,1,1.046,1.674,10.925,10.925,0,0,1,.837,4.393,1.586,1.586,0,0,1-.418.837c-.209.418-.628.837-.837,1.255v.628c0,.209.209.418.628.209h.418c.418,0,.628,0,.628.418a1.581,1.581,0,0,0,.209.837.73.73,0,0,0,.209.418c.209,0,.418,0,.418-.209a1.6,1.6,0,0,1,1.046-.418c.418,0,.418-.209.628-.418s.418-.418.418-.628a.73.73,0,0,1,.209-.418,1.334,1.334,0,0,1,0-1.255c.209-.209.209-.628-.209-.628h-1.255c-.628,0-.837-.209-1.046-.837V89.249a8.434,8.434,0,0,0-1.255-4.6c-.418-.628-1.046-1.046-1.255-1.883-.209-.628,0-1.464-.628-1.883a10.2,10.2,0,0,0-2.3-.837,10.357,10.357,0,0,0-2.72-.837c-.837-.209-1.464-.418-2.3-.628-.209-.209-.837-.418-1.046-.628-.209-.418.418-.628.628-.837a4.65,4.65,0,0,0,2.72-1.674,8.118,8.118,0,0,0,1.674-6.485,4.924,4.924,0,0,1-.418-1.674,1.808,1.808,0,0,1,.628-1.255l.628-.628c0-.418-.209-.628-.628-.418a5.322,5.322,0,0,0-1.464.418c-.628,0-.837-.418-.418-1.046.209-.418.837-.837.418-1.255-.628-.418-1.464.628-2.092.837-.837,0-.209-1.255-.209-1.674,0-.209-.209-.628-.418-.628-.628.209-1.046,1.046-1.464,1.464-.837.628-1.046-.628-1.255-1.046a2.786,2.786,0,0,0-.628-1.046c-1.255-.209-.418,1.883-1.046,2.092-.209.209-.837-.628-.837-.628-.209-.209-.628-1.046-1.046-.628-.418.628.209,1.464-.209,2.092-.418.837-1.464-.209-2.092-.418-.418-.209-.628,0-.628.418s.418.837.628,1.464-.628.628-1.255.418c-.209,0-.628-.209-1.046,0-.418,0-.209.418-.209.628,0,0,.837.209.837.418a1.087,1.087,0,0,1,.418.837C170.877,67.493,170.459,68.957,170.877,70.84Zm-4.812,18.2-.209.209c-.418.209-.837,0-1.255,0-1.464,0-3.138-.209-4.6-.209a13.811,13.811,0,0,1-2.929-.209c-.418,0-.628,0-.837-.418l-1.255-2.51c-.209-.209-.209-.418-.418-.628-.418-.837-.837-1.464-1.255-2.3l-.628-1.255c-.209-.418-.209-.837.418-1.255.837-.418,1.464-1.046,2.3-1.464.418-.209.837,0,.837.418.209.418.209,1.046.418,1.464.209.628.418,1.255.628,2.092h0c.209,1.046.628,2.3.628,2.51.209.837.837.837,1.674.837.628,0,1.464-.209,2.092-.209h1.255a2.973,2.973,0,0,1,1.255.418c.418.418,1.046.837,1.674,1.464C165.857,88.2,166.275,88.622,166.066,89.04ZM173.6,115.4c-.418.418-1.046.418-1.464.628-1.255.209-3.347-.628-2.3-2.3.837-1.464,3.138-.837,3.766.418A1.316,1.316,0,0,1,173.6,115.4ZM171.5,69.585a5.841,5.841,0,0,1,1.674-4.184l.628-.628a.2.2,0,0,0,.209-.209,5.841,5.841,0,0,1,3.766-1.255,6.067,6.067,0,1,1,0,12.133A5.829,5.829,0,0,1,171.5,69.585Zm12.761,43.3a4.377,4.377,0,0,1,1.255.837.934.934,0,0,1,0,1.046c-.628,1.046-2.51,1.674-3.347,1.046a1.9,1.9,0,0,1-.628-2.3C181.965,112.47,183.22,112.679,184.266,112.888Zm2.092-30.752a1.886,1.886,0,0,1-.209,1.046c0,.209-.209.628-.418.628a.769.769,0,0,1-.628-.209,12.622,12.622,0,0,1-1.674-1.674.769.769,0,0,0-.628-.209c-.209,0-.209.209-.209.418,0,.418-.209.837-.209,1.674.209,1.464.209,3.347.418,5.021,0,.837.209,1.883.209,2.72a1.258,1.258,0,0,1-.209.837c0,.209-.209.209-.418.209a22.737,22.737,0,0,0-3.766.209,11.929,11.929,0,0,0-2.72.209c-.837,0-1.255-.209-1.255-1.046V86.948c0-.628.209-1.046,0-1.464a1.992,1.992,0,0,0-.418-1.464c-.209-.209-.418-.418-.837-.209-.628.628-1.255,1.046-1.883,1.674s-.837.418-1.255-.209c-.209-.418-.418-.628-.628-1.046-.209-.628-.209-.837.418-1.046,1.255-.628,2.51-1.464,3.975-2.092.628-.418,1.255-.628,1.883-1.046,1.674-.837,2.092,1.883,1.883,2.929-.209.628-.628,1.046-.837,1.674-.628,1.046-.209,2.51.209,3.766.209.628.628,1.883,1.464,1.464a3.7,3.7,0,0,0,1.046-1.674,3.6,3.6,0,0,0,.418-2.51c-.209-.837-1.046-1.255-1.255-2.092a2.954,2.954,0,0,1,.209-1.883c0-.418.209-1.255.628-1.464a4.08,4.08,0,0,1,2.72-.209,9.062,9.062,0,0,0,1.046.209c.837.418,1.674.628,2.51,1.046C186.358,81.091,186.567,81.509,186.358,82.137Z" transform="translate(-151.38 -60.993)"/>
          <g id="Grupo_3967" data-name="Grupo 3967" transform="translate(16.987 5.454)">
            <path id="Trazado_4194" data-name="Trazado 4194" d="M168.155,63.6a1.255,1.255,0,1,0,1.255,1.255A1.206,1.206,0,0,0,168.155,63.6Zm0,1.883a.418.418,0,1,1,.418-.418A.45.45,0,0,1,168.155,65.483Z" transform="translate(-151.419 -63.6)"/>
            <g id="Grupo_3966" data-name="Grupo 3966" transform="translate(0 0.837)">
              <path id="Trazado_4195" data-name="Trazado 4195" d="M160.755,64a1.255,1.255,0,1,0,1.255,1.255A1.206,1.206,0,0,0,160.755,64Zm-.209,1.674a.418.418,0,1,1,.418-.418C161.174,65.464,160.964,65.674,160.546,65.674Z" transform="translate(-159.5 -64)"/>
            </g>
          </g>
          <g id="Grupo_3968" data-name="Grupo 3968" transform="translate(20.125 5.035)">
            <path id="Trazado_4196" data-name="Trazado 4196" d="M165.393,67.375h-2.929A1.43,1.43,0,0,1,161,65.91V64.864a1.43,1.43,0,0,1,1.464-1.464h2.929a1.43,1.43,0,0,1,1.464,1.464V65.91A1.43,1.43,0,0,1,165.393,67.375Zm-2.929-2.929a.45.45,0,0,0-.418.418V65.91a.45.45,0,0,0,.418.418h2.929a.45.45,0,0,0,.418-.418V64.864a.45.45,0,0,0-.418-.418Z" transform="translate(-161 -63.4)"/>
          </g>
          <g id="Grupo_3969" data-name="Grupo 3969" transform="translate(25.982 5.035)">
            <path id="Trazado_4197" data-name="Trazado 4197" d="M167.984,67.375h-2.72A1.43,1.43,0,0,1,163.8,65.91V64.864a1.43,1.43,0,0,1,1.464-1.464h2.929a1.43,1.43,0,0,1,1.464,1.464V65.91A1.492,1.492,0,0,1,167.984,67.375Zm-2.72-2.929a.45.45,0,0,0-.418.418V65.91a.45.45,0,0,0,.418.418h2.72c.209,0,.628-.209.628-.418V64.864a.45.45,0,0,0-.418-.418Z" transform="translate(-163.8 -63.4)"/>
          </g>
          <line id="Línea_41" data-name="Línea 41" x2="1.046" transform="translate(19.497 6.709)" fill="#fff"/>
          <line id="Línea_42" data-name="Línea 42" x2="0.837" transform="translate(25.564 6.709)" fill="#fff"/>
          <line id="Línea_43" data-name="Línea 43" x2="0.628" transform="translate(31.422 6.5)" fill="#fff"/>
        </g>
        <g id="Grupo_3971" data-name="Grupo 3971" transform="translate(27.447 28.465)">
          <path id="Trazado_4198" data-name="Trazado 4198" d="M166.383,77.11c-.837,0-1.674-.418-1.674-1.255,0-.628.837-1.255,1.674-1.255s1.674.418,1.674,1.255c0,.628-.837,1.255-1.674,1.255m.837-2.3c-.209,0-.628-.209-.837-.209-.418,0-.628,0-.837.209-.628.209-1.046.628-1.046,1.046,0,.628.837,1.255,1.883,1.255s1.883-.628,1.883-1.255C168.266,75.437,167.847,75.018,167.22,74.809Z" transform="translate(-164.5 -74.6)"/>
          <path id="Trazado_4199" data-name="Trazado 4199" d="M166.164,75.537c-.628,0-1.046-.209-1.046-.418s.418-.418,1.046-.418,1.046.209,1.046.418-.418.418-1.046.418m0-.837c-.837,0-1.464.209-1.464.628s.628.628,1.464.628,1.464-.209,1.464-.628S167,74.7,166.164,74.7Z" transform="translate(-164.282 -74.491)"/>
          <path id="Trazado_4200" data-name="Trazado 4200" d="M165.345,75.537a.916.916,0,0,1,.209-.628c.209,0,.209.209.209.628h.209c0-.418-.209-.837-.418-.837s-.418.418-.209.837h0" transform="translate(-163.672 -74.491)"/>
          <path id="Trazado_4201" data-name="Trazado 4201" d="M165.382,75.309h0a1.223,1.223,0,0,0,.209.837c.209,0,.209-.418.209-.837V75.1h.209v.209c0,.628-.209,1.046-.418,1.046-.209.209-.418-.209-.209-1.046h0" transform="translate(-163.708 -74.054)"/>
        </g>
      </g>
      <g id="Grupo_3977" data-name="Grupo 3977" transform="translate(117.344)">
        <path id="Trazado_4202" data-name="Trazado 4202" d="M213.918,64.9c-.209,0-.418.418-.418,1.046,0,.418.209.837.418.837s.418-.418.418-.837C214.337,65.318,214.128,64.9,213.918,64.9Z" transform="translate(-200.891 -54.803)"/>
        <path id="Trazado_4203" data-name="Trazado 4203" d="M215.618,64.9c-.209,0-.418.418-.418,1.046,0,.418.209.837.418.837s.418-.418.418-.837C216.037,65.318,215.828,64.9,215.618,64.9Z" transform="translate(-199.035 -54.803)"/>
        <g id="Grupo_3973" data-name="Grupo 3973" transform="translate(10.308 12.817)">
          <path id="Trazado_4204" data-name="Trazado 4204" d="M216.166,69.756a3.661,3.661,0,0,1-3.766-2.72c0-.209,0-.418.209-.418s.418,0,.418.209c.209,1.255,1.674,2.092,3.138,2.092a3.025,3.025,0,0,0,3.138-2.3.418.418,0,0,1,.837,0A3.723,3.723,0,0,1,216.166,69.756Z" transform="translate(-212.4 -66.2)"/>
        </g>
        <g id="Grupo_3976" data-name="Grupo 3976">
          <path id="Trazado_4205" data-name="Trazado 4205" d="M214.555,70.618a1.288,1.288,0,0,0,1.464-.837,4.08,4.08,0,0,0-2.72-.209C213.509,70.409,213.928,70.618,214.555,70.618Z" transform="translate(-201.11 -49.852)"/>
          <path id="Trazado_4206" data-name="Trazado 4206" d="M214.528,72.346h0c0,.837-.209,1.674-.628,1.883,1.464,0,2.51-.837,2.51-1.883,0-.418-.209-.628-.418-1.046h0C216.2,71.718,215.574,72.137,214.528,72.346Z" transform="translate(-200.454 -47.814)"/>
          <path id="Trazado_4207" data-name="Trazado 4207" d="M214.161,72.955c.209,0,.418-.418.418-1.255h-.837C213.534,72.537,213.743,72.955,214.161,72.955Z" transform="translate(-200.716 -47.377)"/>
          <path id="Trazado_4208" data-name="Trazado 4208" d="M214.155,72.155c.209-.628.418-1.255.628-1.255.418,0,.628.418.837,1.255.628,0,1.046-.418,1.046-.628,0-.418-.837-.628-1.883-.628s-1.883.209-1.883.628A1.265,1.265,0,0,0,214.155,72.155Z" transform="translate(-201.546 -48.251)"/>
          <path id="Trazado_4209" data-name="Trazado 4209" d="M214.118,71.2c-.209,0-.418.418-.418.837h.837C214.537,71.409,214.328,71.2,214.118,71.2Z" transform="translate(-200.673 -47.923)"/>
          <path id="Trazado_4210" data-name="Trazado 4210" d="M215.22,74.02c-.418-.209-.628-.837-.628-1.674h0c-.837-.209-1.674-.418-1.674-1.046h0a1.6,1.6,0,0,0-.418,1.046A2.693,2.693,0,0,0,215.22,74.02Z" transform="translate(-201.983 -47.814)"/>
          <g id="Grupo_3975" data-name="Grupo 3975">
            <path id="Trazado_4211" data-name="Trazado 4211" d="M214.555,70.618a1.288,1.288,0,0,0,1.464-.837,4.08,4.08,0,0,0-2.72-.209C213.509,70.409,213.928,70.618,214.555,70.618Z" transform="translate(-201.11 -49.852)"/>
            <g id="Grupo_3974" data-name="Grupo 3974" transform="translate(12.19 19.583)">
              <path id="Trazado_4212" data-name="Trazado 4212" d="M214.555,70.618a1.288,1.288,0,0,0,1.464-.837,4.08,4.08,0,0,0-2.72-.209C213.509,70.409,213.928,70.618,214.555,70.618Z" transform="translate(-213.3 -69.434)"/>
            </g>
            <path id="Trazado_4213" data-name="Trazado 4213" d="M234.935,117.449c-.209-2.51-.628-5.021-.628-7.531-.209-4.812-.418-9.832-.418-14.644.628-.209.628-.418.209-1.046-.209-.209-.209-.418-.418-.418a1.239,1.239,0,0,1-.209-1.464,4.08,4.08,0,0,0,.209-2.72,14.172,14.172,0,0,0-2.51-5.021c-.418-.418-.628-.837-1.046-1.255.209-.209.418-.418.418-.628.418-.628.418-.837-.418-1.046-1.883-.628-3.556-1.255-5.439-1.883l-1.883-.628c-.209,0-.209-.418-.418-.628l.209-.209c.837-.418,1.883-.628,2.72-1.046a3.375,3.375,0,0,0,2.51-2.72c0-.209,0-.837.418-1.046a4.572,4.572,0,0,0,1.046-.628,1.106,1.106,0,0,0,.209-1.674,1.151,1.151,0,0,0-1.046-.628h0a.729.729,0,0,1-.209-1.046,2.678,2.678,0,0,0,1.464-2.72c0-.837-.209-1.674-.209-2.51a2.686,2.686,0,0,0-.837-2.092,7.208,7.208,0,0,0-4.812-2.092,12.726,12.726,0,0,0-4.812.628,8.754,8.754,0,0,0-3.766,2.3,6.84,6.84,0,0,0-2.3,3.138,1.318,1.318,0,0,0,.628,1.674c.209,0,.209.209.418.418.209.628.628,1.464.837,2.3h0a1.255,1.255,0,1,0,0,2.51h.209a1.921,1.921,0,0,1,.837,1.255c0,.209.209.628.209.837a3.142,3.142,0,0,0,2.51,2.3c.418.209,1.046.209,1.464.418a.418.418,0,1,1,0,.837,1.886,1.886,0,0,1-1.046.209c-1.883.628-3.766,1.046-5.648,1.674-.837.209-.837.418-.628,1.255v.837a14,14,0,0,0-2.929,3.975,6.241,6.241,0,0,0-.628,5.439.73.73,0,0,1-.209.418c-.418.209-.837.209-1.046.418-.209,0-.628,0-.418.418,0,.209.418.209.628.418h.628v.209c-.209.209-.628.418-.837.628a.769.769,0,0,0-.209.628c0,.209.209.209.628.209.209-.209.418-.209.837-.418,0,.418-.209.628-.209,1.046,0,.209,0,.418.209.418s.418,0,.418-.209c.209-.209.209-.418.418-.628,0,.209,0,.209.209.418.209.418.209.837.837.628,0,0,.209-.628,0-.837a3.879,3.879,0,0,0-.418-1.464c.628.209,1.255.628,1.883.209-.209-.209-.209-.418-.418-.628a1.779,1.779,0,0,0-1.046-.628,1.863,1.863,0,0,1-1.046-1.674c-.209-2.929,1.255-5.021,3.138-7.113h.209c0,.209.209.418.209.628.209,1.046.418,1.046,1.255.628.209,0,.418-.209.628-.418s.628-.209.837-.418l.209.209a13.326,13.326,0,0,0-.418,1.464,27.868,27.868,0,0,0-1.046,3.975,16.146,16.146,0,0,0-.418,3.138v3.138a40.2,40.2,0,0,1,0,5.021,43.622,43.622,0,0,1,0,5.23,16.616,16.616,0,0,0,.209,4.6c.209.837.628,1.674.837,2.51-.209,0-.418-.209-.628-.209s-.418.209-.628.209c.209.209.209.418.418.628l.628.628a13.331,13.331,0,0,0-1.464.418,4.683,4.683,0,0,0-3.138,1.674c-.209.209-.209.628-.418,1.046.418.209.628.418,1.046.418,2.72-.209,5.648-.418,8.368-.628,1.046,0,1.464-.837,1.046-1.883a10.2,10.2,0,0,1-.628-1.464h.628c.837,0,1.046-.209,1.046-1.046v-2.3c0-1.464-.209-2.72-.209-4.184,0-.418-.209-.628-.209-1.046,0-2.51,0-5.021.209-7.531v-.628a.2.2,0,0,1,.209.209c.209.837.418,1.464.628,2.092.418,1.255,1.046,2.51.837,3.766a6.69,6.69,0,0,0,1.046,3.975,6.139,6.139,0,0,1,.628,2.092c.209.418,0,1.046.209,1.674,0,1.255.209,2.3,1.464,2.929a18.4,18.4,0,0,0-1.255,2.092c-.628.837-.209,1.464.837,1.464h8.786A2.265,2.265,0,0,1,234.935,117.449Zm-6.9-45.814h0c.418,0,.628.209.628.418v.209c0,.209-.209.209-.418.209a.45.45,0,0,1-.418-.418C227.822,71.844,227.822,71.635,228.031,71.635Zm-.418-2.72h0c-.418-.418-.418-.837-.628-1.255h1.255A3.234,3.234,0,0,0,227.613,68.915Zm.837-2.72c-.209,0-.209.209-.418.209a11.929,11.929,0,0,1-2.72.209c-1.883-.209-3.556-.418-5.439-.628h-.209v-.209h8.159C228.031,65.987,228.24,65.987,228.449,66.2Zm-4.393,2.51a.769.769,0,0,0-.628.209,2.887,2.887,0,0,0-.837.628c-.209.209-.209.628-.628.628-.209,0-.209-.209-.418-.418l-.418-.418a2.254,2.254,0,0,0-1.674-.418c-.209,0-.628.209-.837.209-.209.209-.418.209-.628.418s-.418.209-.628.418a11.05,11.05,0,0,0-.209-2.72c0-.209.209-.209.418-.209h1.046a1.568,1.568,0,0,1,1.046.209h-.209c-.209,0-.209,0-.418.209-.209,0-.628,0-.628.418h3.556a.769.769,0,0,0,.628-.209c.209,0,.209-.209.418-.209s0,.418-.209.418h-.628c-.418,0-.628.209-1.046.209H220.5l.209.209c.418.209,1.046,0,1.464,0a2.974,2.974,0,0,0,1.255-.418c.418-.209.628-.418,1.046-.418a1.087,1.087,0,0,1,.837.418c.209.209.209.418.418.628,0,.209.209.209.209.418a.648.648,0,0,0,.209.418,1.586,1.586,0,0,1-.837-.418C225.311,68.706,224.684,68.5,224.056,68.706Zm1.464,1.674a1.4,1.4,0,0,1-1.464,1.255A1.35,1.35,0,0,1,222.8,70.38a1.206,1.206,0,0,1,1.255-1.255C225.1,69.125,225.521,69.543,225.521,70.38Zm-4.184.418c0,.628-.837,1.255-1.464,1.255s-1.255-.837-1.255-1.464.418-1.046,1.255-1.046C220.918,69.334,221.337,69.752,221.337,70.8Zm-7.74-3.766a.29.29,0,0,1,0-.418l.628-1.255a9.691,9.691,0,0,1,6.276-3.975,11.368,11.368,0,0,1,4.6,0,3.778,3.778,0,0,1,2.929,2.092c.628.837.418,1.255-.628,1.464h-1.464c-1.046,0-2.092-.209-3.138-.209a33.894,33.894,0,0,0-4.6.209,10.817,10.817,0,0,0-2.72,1.255c-.418.209-.628.418-1.046.628A1.581,1.581,0,0,1,213.6,67.033Zm.837.837a7.43,7.43,0,0,0,1.883-.837v1.883c0,.209-.209.418-.209.628-.418.418-.628.418-1.046,0A14.407,14.407,0,0,1,214.433,67.869Zm0,4.6h0a.418.418,0,1,1,0-.837h0a.45.45,0,0,1,.418.418C214.852,72.262,214.852,72.472,214.433,72.472Zm3.766,4.184a4.564,4.564,0,0,1-1.046-.837c-.418-.628-.628-1.255-1.046-1.883-.209-.418-.209-.837-.628-1.255a.768.768,0,0,0,.209-.628c0-.418-.209-.628-.418-1.046h0c.628-.209,1.255-.837,2.092-.628.209,0,.418.418.418.628a1.748,1.748,0,0,0,1.883,1.255c1.046,0,1.464-.209,1.674-1.255.209-.418.628-.209.837,0s.209.628.418.628a2.08,2.08,0,0,0,3.138-1.046c0-.209-.209-.837.418-.837.418,0,.418.418.418.628a.45.45,0,0,0,.418.418,1.586,1.586,0,0,0-.418.837,1.151,1.151,0,0,0,.628,1.046c-.628.628-.418,1.464-1.046,2.092a6.677,6.677,0,0,1-3.347,1.883,6.19,6.19,0,0,1-2.092.418,1.886,1.886,0,0,1-1.046-.209C219.663,77.283,218.826,77.074,218.2,76.656Zm4.184,3.556a1.4,1.4,0,0,1-1.464.837c-.628,0-1.046-.418-1.464-1.046A4.6,4.6,0,0,1,222.383,80.212Zm-2.929,2.51a5.23,5.23,0,0,1,2.929,0c1.046.418,1.674,1.046,1.674,1.883,0,1.046-1.464,2.092-3.138,2.092s-3.138-.837-3.138-2.092C217.78,83.768,218.408,83.141,219.454,82.722Zm-.837,33.681c0,.209-.209.209-.418.209-1.255.209-2.51.209-3.766.418a8.9,8.9,0,0,0-2.3.418H211.3v-.209c.418-.209.837-.628,1.255-.837a10.072,10.072,0,0,1,5.021-1.464C218.2,115.148,218.826,115.775,218.617,116.4Zm7.113-3.556a16.259,16.259,0,0,1-.418-3.347,3.374,3.374,0,0,0-.628-1.883,5.487,5.487,0,0,1-1.046-3.975,12.381,12.381,0,0,0-1.046-3.975c-.209-.837-.628-1.674-.837-2.72-.209-.418-.209-.628-.628-.628s-.837,0-.837.418a2.653,2.653,0,0,0-.209,1.255c0,2.092-.209,4.393-.209,6.485,0,1.046.418,2.092.418,3.347a37.032,37.032,0,0,1,.209,4.812.45.45,0,0,1-.418.418c-2.092-.209-3.975.209-4.393-2.092a32.385,32.385,0,0,1-.209-4.6c0-2.092.418-4.184.209-6.485,0-2.3-1.046-5.439-.209-7.531.418-1.046,1.883-1.046,2.72-1.046h2.929a5.792,5.792,0,0,0,1.883-.209c.837,0,3.347-.418,3.766.837a13.327,13.327,0,0,1,.418,1.464,21.223,21.223,0,0,1,.418,5.23,51.817,51.817,0,0,0,.628,5.648c.209,1.674,1.046,3.138,1.255,4.6a16.907,16.907,0,0,1,.209,3.347l-.209.209a14.127,14.127,0,0,1-2.929.418C225.939,113.474,225.73,113.265,225.73,112.847Zm6.694,4.6H225.1c.418-1.046,1.255-1.464,1.883-2.3h.209a16.909,16.909,0,0,1,4.6,1.464,2.887,2.887,0,0,1,.628.837Zm-.837-1.674a.593.593,0,0,1,0-1.046c.209,0,.209-.209.418-.209s.209-.209.418-.209a2.529,2.529,0,0,0-2.092.628,18.986,18.986,0,0,0-.628-8.368,25.288,25.288,0,0,1-1.255-7.949,53.948,53.948,0,0,0-.837-8.159c-.209-1.674-.628-3.138-.837-4.812v-.837c.837.209,1.674,1.046,2.3,0,.209-.209.209-.418.418-.628h.209c1.255,1.674,2.72,3.138,3.138,5.23a8.437,8.437,0,0,1,0,2.3c0,.418-.209.628-.628.418-.418,0-.837-.209-1.255-.209-.209,0-.418.209-.628.418.209.209.209.418.418.628a1.568,1.568,0,0,0,1.046.209,6.356,6.356,0,0,1-1.464,1.046c-.209.209-.628.418-.209.837v.209c.209.628.209.837.837.418,1.046.628.837-.628,1.255-.837a.73.73,0,0,0,.209.418c0,.209,0,.418.209.418.628.209.418.628.628,1.046.209,6.485.209,12.97.837,19.246v.628A4.485,4.485,0,0,1,231.587,115.775Z" transform="translate(-207.473 -60.073)"/>
          </g>
        </g>
      </g>
      <g id="Grupo_3981" data-name="Grupo 3981" transform="translate(46.325 4.03)">
        <g id="Grupo_3980" data-name="Grupo 3980">
          <g id="Grupo_3978" data-name="Grupo 3978">
            <path id="Trazado_4214" data-name="Trazado 4214" d="M180.418,68.992c.209,0,.418-.418.418-1.046s-.209-1.046-.418-1.046-.418.418-.418,1.046C180,68.364,180.209,68.992,180.418,68.992Z" transform="translate(-166.453 -56.649)"/>
            <path id="Trazado_4215" data-name="Trazado 4215" d="M179.461,68.992c.209,0,.418-.418.418-1.046s-.209-1.046-.418-1.046-.418.418-.418,1.046C178.834,68.364,179.043,68.992,179.461,68.992Z" transform="translate(-167.587 -56.649)"/>
            <path id="Trazado_4216" data-name="Trazado 4216" d="M181.456,72.056a3.6,3.6,0,0,1-3.556-2.929c0-.209,0-.418.209-.418h0c.209,0,.209,0,.209.209a3.192,3.192,0,0,0,6.276-.209.2.2,0,0,1,.209-.209h0c.209,0,.209.209.209.418A3.462,3.462,0,0,1,181.456,72.056Z" transform="translate(-168.746 -54.902)"/>
            <path id="Trazado_4217" data-name="Trazado 4217" d="M199.623,68.485c.418-1.046-.628-.418-1.046-.837-.209-.209-.209-.837-.418-.837s-.209.418-.628.418-1.255-.209-1.046.628c.209.418.418.628.209.837s-.837-.209-1.046.209c-.209.209.628.837.628.837.418.209,1.046.628,1.046,1.255,0,.837-.209,1.883-.209,2.3a15.479,15.479,0,0,1-8.159,9h-.628a1.39,1.39,0,0,1-.837-1.046v-.209a6.95,6.95,0,0,0,5.23-6.067,1.586,1.586,0,0,0,.837.418,1.492,1.492,0,0,0,1.464-1.674,1.617,1.617,0,0,0-1.464-1.674,1.6,1.6,0,0,0-1.046.418s0-3.766-2.72-5.648c-.209-.209-.628-.418-.837-.628l-.209-.209v-.209a2.973,2.973,0,0,0,.418-1.255,2.51,2.51,0,1,0-5.021,0,2.243,2.243,0,0,0,.418,1.255c-.209.209-.418.418-.628.418a3.372,3.372,0,0,0-1.464.837,5.114,5.114,0,0,0-1.883,2.3,9.431,9.431,0,0,0-.628,2.3v.628a.769.769,0,0,0-.628-.209,1.492,1.492,0,0,0-1.464,1.674,1.617,1.617,0,0,0,1.464,1.674,1.087,1.087,0,0,0,.837-.418c.418,3.138,2.51,5.648,5.23,6.067v.209c-.209.418-.209.837-.418,1.046a.2.2,0,0,1-.209.209v.209a16.725,16.725,0,0,1-7.949-9,6.458,6.458,0,0,1-.418-2.3c0-.628.628-1.046,1.046-1.255.209,0,1.046-.628.628-.837-.418-.418-.837,0-1.046-.209s0-.418.209-.837c.209-.628-.628-.418-1.046-.628s-.418-.418-.628-.418-.209.628-.418.837c-.418.418-1.255-.418-1.046.837.418,1.046-1.046,1.046-.418,1.255.628.418,1.674,3.556,1.883,3.975a15.841,15.841,0,0,0,1.883,3.766c3.556,4.812,7.322,5.858,6.694,6.485-2.092,2.092-1.674,5.021-3.347,5.858-.837.418-5.439,1.255-5.021,2.092.418,1.046,1.674,1.464,2.092,2.3.209.837.209,1.883,1.255,2.092.628,0,1.046-.418,1.464-.209.418,0,1.046.837,1.255,1.255,1.046,1.046,2.3-1.046,2.929,0,.628.837.209,2.3.209,3.347v8.159c0,1.464-2.092,1.255-2.3,2.72-.209,1.255,1.046,6.485,3.138,5.858s1.883-5.648,1.046-7.113a4.406,4.406,0,0,1-1.046-2.72V99.446c.209-2.092,1.255-.837,2.72-1.255.837-.209,1.883-1.674,2.929-1.255,1.046.209,2.092,1.883,2.72,2.72a7.381,7.381,0,0,1,1.674,2.72c0,1.255-1.883,1.674-2.51,1.883-1.046.418-2.092,0-3.138.209s-2.092,1.883-2.51,2.72c-1.464,3.138,2.72,2.72,4.393,1.464.628-.418,1.464-1.255,1.255-2.092-.209-1.464.418-1.883,1.674-2.3,2.929-1.255,1.464-3.556,0-5.23-.628-.837-.837-1.255-.209-2.092.418-.628.209-1.883.837-2.092.837-.209,2.3.209,2.929-.628s-1.046-1.883-1.674-2.3c.209.209.418.209,0,0-1.255-.837-4.393-1.883-4.812-3.347a27.288,27.288,0,0,0-2.51-4.393c-.418-.418-.418-.628,0-.837a18.08,18.08,0,0,0,6.9-6.276,21.094,21.094,0,0,0,1.883-3.766c.209-.418,1.255-3.766,1.883-3.975C200.669,69.531,199.2,69.531,199.623,68.485ZM193.766,73.3a.628.628,0,1,1-.628.628A.555.555,0,0,1,193.766,73.3Zm-14.644,1.255a.628.628,0,1,1,.628-.628A.668.668,0,0,1,179.122,74.552Zm12.97,33.053c-.837,1.046-2.092,1.046-3.138,1.464-1.883-.209,0-2.3.628-2.929C190.837,105.3,193.557,105.722,192.092,107.6ZM187.7,82.292c.418.209.418.628,0,1.046a1.768,1.768,0,0,1-1.255.418,1.087,1.087,0,0,1-.837-.418.769.769,0,0,1-.209-.628c0-.418.209-.628.209-1.046s.209-.418.418-.418.418.209.628.418c0,.209.209.418.628.418C187.49,82.292,187.49,82.292,187.7,82.292Zm-7.113-7.949c0-.418-.628-3.975,1.674-5.439.418-.418,1.046-.209,1.255.418h0a.45.45,0,0,0,.418.418c.209,0,.209-.209.418-.209a4.336,4.336,0,0,0,.418-1.255c0-.209.418-.209.418-.209.209.209.209,1.046.209,1.255v.418l.209.209.209-.209v-.209a1.886,1.886,0,0,1,.209-1.046c0-.418.209-.418.628-.418a.45.45,0,0,1,.418.418V69.74l.209.209c.209,0,.209,0,.209-.209s.209-.418.209-.837v-.837c0-.209,0-.418.209-.418a.449.449,0,0,1,.837.209v1.674c0,.209.209.418.418.209.209,0,.209,0,.418-.209s.209-.209.209-.418a.729.729,0,0,1,1.046-.209,14.686,14.686,0,0,1,1.255,1.883,6.522,6.522,0,0,1,.418,3.138c0,3.556-2.72,6.485-5.858,6.485C183.306,80.828,180.586,77.9,180.586,74.343Zm6.276,38.283c0,.628-.209,4.184-1.464,3.766s-1.464-2.72-1.674-3.766C183.933,110.952,186.653,110.743,186.862,112.626Zm4.393-21.547c.628-.628,1.883-.209,2.51.209.628.209,4.184,2.3,3.138,3.138-.628.418-2.51,0-2.72,1.046-.209.628.418,2.3-1.046,1.674-.837-.209-1.883-1.464-2.72-.837-.628.628-1.883,2.092-2.72,1.255-.837-.628-1.883-1.674-3.138-.837-.418.418-2.092,1.674-2.51.418-.209-.418-.837-3.138-1.674-1.674-1.046,1.674-1.674.837-1.883-.628.209-.628-2.72-2.092-1.464-2.3,1.883-.209,2.929-1.046,4.812-1.674,1.883-.837,2.929.209,1.883,1.883-.628.837.418.628.837.209.628-.628.837-1.674,1.883-1.255.628.209.837.837,1.046,1.464.418,1.046.837-1.046,1.046-1.255,1.046-1.255,2.3,1.464,2.929.837C191.883,92.334,190.837,91.5,191.255,91.078Zm-.209-1.883c-.209,1.046-1.883,1.046-2.72,1.046-2.929.418-6.694,0-4.393-3.766h0c.209-.209.837-1.046,1.046-1.255a2.134,2.134,0,0,1,1.883-.418,2.375,2.375,0,0,1,1.674.628C188.745,85.43,191.465,87.94,191.046,89.2Z" transform="translate(-173.524 -62)"/>
            <path id="Trazado_4218" data-name="Trazado 4218" d="M184.782,76.5Z" transform="translate(-161.402 -46.166)"/>
          </g>
          <g id="Grupo_3979" data-name="Grupo 3979" transform="translate(11.037 24.267)">
            <path id="Trazado_4219" data-name="Trazado 4219" d="M181.1,76.529c-1.046,0-2.092-.628-2.092-1.464s.837-1.464,2.092-1.464c1.046,0,2.092.628,2.092,1.464s-.837,1.464-2.092,1.464m1.046-2.72A9.06,9.06,0,0,0,181.1,73.6a1.568,1.568,0,0,0-1.046.209,1.518,1.518,0,0,0-1.255,1.255c0,.837,1.046,1.464,2.3,1.464s2.3-.628,2.3-1.464C183.612,74.437,182.984,74.018,182.147,73.809Z" transform="translate(-178.8 -73.6)"/>
            <path id="Trazado_4220" data-name="Trazado 4220" d="M180.774,74.855c-.837,0-1.255-.209-1.255-.418s.628-.418,1.255-.418c.837,0,1.255.209,1.255.418.209.209-.418.418-1.255.418m0-1.255c-1.046,0-1.674.418-1.674.837s.837.837,1.674.837c1.046,0,1.674-.418,1.674-.837C182.656,74.018,181.82,73.6,180.774,73.6Z" transform="translate(-178.472 -73.6)"/>
            <path id="Trazado_4221" data-name="Trazado 4221" d="M179.843,74.746c0-.418.209-.628.418-.628s.209.209.418.628h.209c0-.628-.209-1.046-.628-1.046s-.628.418-.418,1.046h0" transform="translate(-177.751 -73.491)"/>
            <path id="Trazado_4222" data-name="Trazado 4222" d="M179.909,74.2h0c0,.628.209,1.046.418,1.046s.418-.418.418-.837V74.2h.209v.209q0,1.255-.628,1.255c-.418,0-.628-.628-.628-1.255V74.2h.209" transform="translate(-177.817 -72.945)"/>
          </g>
        </g>
      </g>
      <g id="Grupo_3982" data-name="Grupo 3982" transform="translate(74.725 7.78)">
        <path id="Trazado_4223" data-name="Trazado 4223" d="M196.928,65.8h0c-.418.209-.418.418-.628.628Q196.3,66.114,196.928,65.8Z" transform="translate(-177.054 -61.6)" fill="#adcb4a"/>
        <path id="Trazado_4224" data-name="Trazado 4224" d="M199.576,74.292a4.555,4.555,0,0,0,1.883,1.464,2.973,2.973,0,0,0,1.255.418c.628.209.628-.209.837-.837,0-.209.209-.628.209-.837s.209-.628.209-.837a.45.45,0,0,0-.418-.418c-.209-.209-.628-.209-.837-.418a2.782,2.782,0,0,0-1.674-.628h-.418a1.491,1.491,0,0,0-1.255.628c-.628.209-.209.628.209,1.464Z" transform="translate(-174.054 -54.611)" fill="none"/>
        <path id="Trazado_4225" data-name="Trazado 4225" d="M201.328,72.855c.209,0,.209,0,.418-.209a.587.587,0,0,0-.418-1.046.934.934,0,0,0-.628.837C200.909,72.646,201.118,72.855,201.328,72.855Z" transform="translate(-172.249 -55.266)" fill="none"/>
        <path id="Trazado_4226" data-name="Trazado 4226" d="M197.563,75.347c.418,0,.418-.209.628-.418.209-.628.418-1.046.628-1.674L199.446,72h-.209a14.408,14.408,0,0,0-1.674.628c-.418.209-1.255.209-1.046.837a3.879,3.879,0,0,0,.418,1.464C196.936,75.347,197.145,75.347,197.563,75.347Z" transform="translate(-176.853 -54.83)" fill="none"/>
        <path id="Trazado_4227" data-name="Trazado 4227" d="M200.837,74.2c-.209,0-.418,0-.418.418s-.209,1.046-.209,1.464c0,2.092,0,4.184-.209,6.276,0,.837,0,.837.628.837h0c.628,0,.628,0,.837-.628.209-2.3.209-4.393.418-6.694,0-1.255.209-1.255-1.046-1.464C201.046,74.2,201.046,74.2,200.837,74.2Z" transform="translate(-173.014 -52.427)" fill="none"/>
        <path id="Trazado_4228" data-name="Trazado 4228" d="M201.1,83.314c0,.418.209.628.628.418.209,0,.209-.209.209-.628h.209c.628.209.628-.209.837-.628.209-2.3.628-4.393.837-6.694,0-.209,0-.628-.209-.628L201.728,73.9v.628a51.5,51.5,0,0,0-.418,5.439C201.309,81.222,201.1,82.268,201.1,83.314Z" transform="translate(-171.812 -52.755)" fill="none"/>
        <path id="Trazado_4229" data-name="Trazado 4229" d="M205.568,79.629a1.406,1.406,0,0,0-1.464.628,3.087,3.087,0,0,1-3.347,1.674h-1.883a.769.769,0,0,0-.628.209,18.959,18.959,0,0,0-2.3,3.347c-.209.209,0,.418.209.418a54.021,54.021,0,0,0,5.439,1.674,2.653,2.653,0,0,0,1.255.209c.418,0,.628-.418.837-.628.418-.209,1.046-.418,1.046-1.046a23.052,23.052,0,0,1,.418-3.766c0-.837.209-1.674.209-2.3C205.778,80.047,205.568,79.838,205.568,79.629Z" transform="translate(-177.536 -46.56)" fill="none"/>
        <path id="Trazado_4230" data-name="Trazado 4230" d="M195.7,87.231v2.3a7.434,7.434,0,0,0,.418,2.092,12.935,12.935,0,0,0,3.138,4.184,8.6,8.6,0,0,0,5.439,1.883h.209a10.266,10.266,0,0,0,6.485-1.883c.418-.418,1.046-.837,1.464-1.255A8.48,8.48,0,0,0,213.9,92.67a12.035,12.035,0,0,0,1.046-5.439,5.57,5.57,0,0,0-.628-2.51c-1.464-2.929-4.184-4.393-7.322-5.021-.209,0-.418,0-.418.418l-.628,6.276c0,.209,0,.418.209.418a4.644,4.644,0,0,1,1.046,2.3A1.629,1.629,0,0,1,205.951,91c-1.674.209-2.3,0-2.72-1.464a.555.555,0,0,0-.628-.628,15.677,15.677,0,0,0-3.347-1.046,17.427,17.427,0,0,0-3.138-.837C195.7,86.6,195.7,86.6,195.7,87.231Z" transform="translate(-177.709 -46.422)" fill="none"/>
        <path id="Trazado_4231" data-name="Trazado 4231" d="M199.7,84.755a1.43,1.43,0,0,0,1.464,1.464c.628,0,1.046-.628,1.046-1.464s-.418-1.255-1.046-1.255A1.4,1.4,0,0,0,199.7,84.755Z" transform="translate(-173.341 -42.272)" fill="none"/>
        <path id="Trazado_4232" data-name="Trazado 4232" d="M190.7,88.529a2.86,2.86,0,0,0,2.929,2.929,3.217,3.217,0,0,0,3.138-3.138,2.769,2.769,0,0,0-2.72-2.72C191.955,85.6,190.7,86.855,190.7,88.529Z" transform="translate(-183.169 -39.979)" fill="none"/>
        <path id="Trazado_4233" data-name="Trazado 4233" d="M199.513,82.25c.209-.418.418-.628.418-1.046a.2.2,0,0,1-.209-.209c-.209,0-.209,0-.418-.209a18.271,18.271,0,0,1-4.6-1.046c-.837-.209-1.255,0-1.255.837-.209,2.929-.418,5.648-.837,8.577H192.4c-1.255,0-1.255,0-1.046,1.464h0c.209,0,.209.209.418.209h1.674c.418,0,.418,0,.628-.418.209-.628.418-1.464.628-2.092l1.255-4.393c0-.418.209-.418.628-.209s.837.209,1.255.418.628,0,.837-.209A12.422,12.422,0,0,0,199.513,82.25Z" transform="translate(-182.568 -46.461)" fill="none"/>
        <path id="Trazado_4234" data-name="Trazado 4234" d="M211.162,79.554h-.418a.788.788,0,0,0,.209,1.255c.209.209.628.209.837.418a8.439,8.439,0,0,1,3.766,3.347,10.029,10.029,0,0,1-.628,10.251,8.694,8.694,0,0,1-6.067,4.393,25.319,25.319,0,0,1-3.975.209,10.155,10.155,0,0,1-8.368-6.067,8.414,8.414,0,0,1-.628-5.021,8.227,8.227,0,0,1,4.6-7.113,11.743,11.743,0,0,1,7.531-1.046c1.464.209,1.046.418,1.464-.837v-.209c-.628,0-1.255-.209-1.883-.209a15.012,15.012,0,0,0-7.949,1.464c-4.184,2.092-5.23,6.485-4.812,10.669a9.34,9.34,0,0,0,2.51,5.439,11.885,11.885,0,0,0,10.041,4.393,10.606,10.606,0,0,0,6.276-2.72,11.826,11.826,0,0,0,3.975-10.878C217.019,83.32,214.509,81.019,211.162,79.554Z" transform="translate(-178.736 -47.322)" fill="none"/>
        <path id="Trazado_4235" data-name="Trazado 4235" d="M196.928,84.561h5.648c.837,0,.837,0,.837-.837a20.3,20.3,0,0,1,.209-3.556,11.927,11.927,0,0,1,.209-2.72c0-.418,0-.837-.418-.837a2.342,2.342,0,0,1-1.674-1.464,5.792,5.792,0,0,1-.209-1.883c0-.418.209-.837.209-1.464-.418.209-.628.209-.837.418a11.5,11.5,0,0,0-1.464,1.883,27.645,27.645,0,0,0-2.72,9.832C196.3,84.352,196.51,84.561,196.928,84.561Z" transform="translate(-176.845 -55.048)" fill="none"/>
        <path id="Trazado_4236" data-name="Trazado 4236" d="M194.313,85.509c-2.3,0-4.393-.209-6.694-.209-.418,0-.418.209-.418.418a2.342,2.342,0,0,0,1.674,1.464,30.585,30.585,0,0,0,4.184,1.046c.418,0,.418-.209.418-.418a2.974,2.974,0,0,1,.418-1.255l.628-1.255C194.522,85.509,194.522,85.509,194.313,85.509Z" transform="translate(-186.991 -40.306)" fill="none"/>
        <path id="Trazado_4237" data-name="Trazado 4237" d="M193.348,86.438c1.046,0,1.046.209,1.046-1.046a2.225,2.225,0,0,0-1.883-2.092v.837H192.3c-.418-.209-.628-.209-.837.209a2.107,2.107,0,0,1-.628.209h-1.046l-1.883,1.255a.769.769,0,0,0-.209.628c.209,0,.418.209.628.209A43.792,43.792,0,0,1,193.348,86.438Z" transform="translate(-186.445 -42.49)" fill="none"/>
        <path id="Trazado_4238" data-name="Trazado 4238" d="M201.328,72.855c.209,0,.209,0,.418-.209a.587.587,0,0,0-.418-1.046.934.934,0,0,0-.628.837C200.909,72.646,201.118,72.855,201.328,72.855Z" transform="translate(-172.249 -55.266)" fill="none"/>
        <path id="Trazado_4239" data-name="Trazado 4239" d="M200.837,74.2c-.209,0-.418,0-.418.418s-.209,1.046-.209,1.464c0,2.092,0,4.184-.209,6.276,0,.837,0,.837.628.837h0c.628,0,.628,0,.837-.628.209-2.3.209-4.393.418-6.694,0-1.255.209-1.255-1.046-1.464C201.046,74.2,201.046,74.2,200.837,74.2Z" transform="translate(-173.014 -52.427)" fill="none"/>
        <path id="Trazado_4240" data-name="Trazado 4240" d="M197.563,75.347c.418,0,.418-.209.628-.418.209-.628.418-1.046.628-1.674L199.446,72h-.209a14.408,14.408,0,0,0-1.674.628c-.418.209-1.255.209-1.046.837a3.879,3.879,0,0,0,.418,1.464C196.936,75.347,197.145,75.347,197.563,75.347Z" transform="translate(-176.853 -54.83)" fill="none"/>
        <path id="Trazado_4241" data-name="Trazado 4241" d="M206.906,70.848a5.653,5.653,0,0,0-9.2-4.393h-.209l-.628.628a6.014,6.014,0,0,0-1.464,3.766,5.754,5.754,0,0,0,11.506,0Z" transform="translate(-178.037 -62.255)" fill="none"/>
        <path id="Trazado_4242" data-name="Trazado 4242" d="M195.7,87.231v2.3a7.434,7.434,0,0,0,.418,2.092,12.935,12.935,0,0,0,3.138,4.184,8.6,8.6,0,0,0,5.439,1.883h.209a10.266,10.266,0,0,0,6.485-1.883c.418-.418,1.046-.837,1.464-1.255A8.48,8.48,0,0,0,213.9,92.67a12.035,12.035,0,0,0,1.046-5.439,5.57,5.57,0,0,0-.628-2.51c-1.464-2.929-4.184-4.393-7.322-5.021-.209,0-.418,0-.418.418l-.628,6.276c0,.209,0,.418.209.418a4.644,4.644,0,0,1,1.046,2.3A1.629,1.629,0,0,1,205.951,91c-1.674.209-2.3,0-2.72-1.464a.555.555,0,0,0-.628-.628,15.677,15.677,0,0,0-3.347-1.046,17.427,17.427,0,0,0-3.138-.837C195.7,86.6,195.7,86.6,195.7,87.231Z" transform="translate(-177.709 -46.422)" fill="none"/>
        <path id="Trazado_4243" data-name="Trazado 4243" d="M201.1,83.314c0,.418.209.628.628.418.209,0,.209-.209.209-.628h.209c.628.209.628-.209.837-.628.209-2.3.628-4.393.837-6.694,0-.209,0-.628-.209-.628L201.728,73.9v.628a51.5,51.5,0,0,0-.418,5.439C201.309,81.222,201.1,82.268,201.1,83.314Z" transform="translate(-171.812 -52.755)" fill="none"/>
        <path id="Trazado_4244" data-name="Trazado 4244" d="M205.568,79.629a1.406,1.406,0,0,0-1.464.628,3.087,3.087,0,0,1-3.347,1.674h-1.883a.769.769,0,0,0-.628.209,18.959,18.959,0,0,0-2.3,3.347c-.209.209,0,.418.209.418a54.021,54.021,0,0,0,5.439,1.674,2.653,2.653,0,0,0,1.255.209c.418,0,.628-.418.837-.628.418-.209,1.046-.418,1.046-1.046a23.052,23.052,0,0,1,.418-3.766c0-.837.209-1.674.209-2.3C205.778,80.047,205.568,79.838,205.568,79.629Z" transform="translate(-177.536 -46.56)" fill="none"/>
        <path id="Trazado_4245" data-name="Trazado 4245" d="M199.7,84.755a1.43,1.43,0,0,0,1.464,1.464c.628,0,1.046-.628,1.046-1.464s-.418-1.255-1.046-1.255A1.4,1.4,0,0,0,199.7,84.755Z" transform="translate(-173.341 -42.272)" fill="none"/>
        <path id="Trazado_4246" data-name="Trazado 4246" d="M199.576,74.292a4.555,4.555,0,0,0,1.883,1.464,2.973,2.973,0,0,0,1.255.418c.628.209.628-.209.837-.837,0-.209.209-.628.209-.837s.209-.628.209-.837a.45.45,0,0,0-.418-.418c-.209-.209-.628-.209-.837-.418a2.782,2.782,0,0,0-1.674-.628h-.418a1.491,1.491,0,0,0-1.255.628c-.628.209-.209.628.209,1.464Z" transform="translate(-174.054 -54.611)" fill="none"/>
        <path id="Trazado_4247" data-name="Trazado 4247" d="M211.162,79.554h-.418a.788.788,0,0,0,.209,1.255c.209.209.628.209.837.418a8.439,8.439,0,0,1,3.766,3.347,10.029,10.029,0,0,1-.628,10.251,8.694,8.694,0,0,1-6.067,4.393,25.319,25.319,0,0,1-3.975.209,10.155,10.155,0,0,1-8.368-6.067,8.414,8.414,0,0,1-.628-5.021,8.227,8.227,0,0,1,4.6-7.113,11.743,11.743,0,0,1,7.531-1.046c1.464.209,1.046.418,1.464-.837v-.209c-.628,0-1.255-.209-1.883-.209a15.012,15.012,0,0,0-7.949,1.464c-4.184,2.092-5.23,6.485-4.812,10.669a9.34,9.34,0,0,0,2.51,5.439,11.885,11.885,0,0,0,10.041,4.393,10.606,10.606,0,0,0,6.276-2.72,11.826,11.826,0,0,0,3.975-10.878C217.019,83.32,214.509,81.019,211.162,79.554Z" transform="translate(-178.736 -47.322)" fill="none"/>
        <path id="Trazado_4248" data-name="Trazado 4248" d="M196.928,84.561h5.648c.837,0,.837,0,.837-.837a20.3,20.3,0,0,1,.209-3.556,11.927,11.927,0,0,1,.209-2.72c0-.418,0-.837-.418-.837a2.342,2.342,0,0,1-1.674-1.464,5.792,5.792,0,0,1-.209-1.883c0-.418.209-.837.209-1.464-.418.209-.628.209-.837.418a11.5,11.5,0,0,0-1.464,1.883,27.645,27.645,0,0,0-2.72,9.832C196.3,84.352,196.51,84.561,196.928,84.561Z" transform="translate(-176.845 -55.048)" fill="none"/>
        <path id="Trazado_4249" data-name="Trazado 4249" d="M199.513,82.25c.209-.418.418-.628.418-1.046a.2.2,0,0,1-.209-.209c-.209,0-.209,0-.418-.209a18.271,18.271,0,0,1-4.6-1.046c-.837-.209-1.255,0-1.255.837-.209,2.929-.418,5.648-.837,8.577H192.4c-1.255,0-1.255,0-1.046,1.464h0c.209,0,.209.209.418.209h1.674c.418,0,.418,0,.628-.418.209-.628.418-1.464.628-2.092l1.255-4.393c0-.418.209-.418.628-.209s.837.209,1.255.418.628,0,.837-.209A12.422,12.422,0,0,0,199.513,82.25Z" transform="translate(-182.568 -46.461)" fill="none"/>
        <path id="Trazado_4250" data-name="Trazado 4250" d="M194.313,85.509c-2.3,0-4.393-.209-6.694-.209-.418,0-.418.209-.418.418a2.342,2.342,0,0,0,1.674,1.464,30.585,30.585,0,0,0,4.184,1.046c.418,0,.418-.209.418-.418a2.974,2.974,0,0,1,.418-1.255l.628-1.255C194.522,85.509,194.522,85.509,194.313,85.509Z" transform="translate(-186.991 -40.306)" fill="none"/>
        <path id="Trazado_4251" data-name="Trazado 4251" d="M193.348,86.438c1.046,0,1.046.209,1.046-1.046a2.225,2.225,0,0,0-1.883-2.092v.837H192.3c-.418-.209-.628-.209-.837.209a2.107,2.107,0,0,1-.628.209h-1.046l-1.883,1.255a.769.769,0,0,0-.209.628c.209,0,.418.209.628.209A43.792,43.792,0,0,1,193.348,86.438Z" transform="translate(-186.445 -42.49)" fill="none"/>
        <path id="Trazado_4252" data-name="Trazado 4252" d="M190.7,88.529a2.86,2.86,0,0,0,2.929,2.929,3.217,3.217,0,0,0,3.138-3.138,2.769,2.769,0,0,0-2.72-2.72C191.955,85.6,190.7,86.855,190.7,88.529Z" transform="translate(-183.169 -39.979)" fill="none"/>
        <path id="Trazado_4253" data-name="Trazado 4253" d="M222.454,96.862a22.822,22.822,0,0,1-2.3-1.255c0-.418.209-.628.209-1.046-.209,0-.418-.209-.628-.209-.418,0-.628-.209-.418-.628.209-2.092.628-4.184.837-6.485a2.489,2.489,0,0,0-.837-2.3l-.628-.628a1.808,1.808,0,0,1-.628-1.255,6.378,6.378,0,0,0-.628-3.347c-.209-.418-.418-.837-1.046-.837s-.628.628-.837,1.046c0,.418-.209.418-.628.418-.837-.209-1.883-.418-2.72-.628l-.209-.209V79.08h0c0-.209.418-.418.628-.418a5.021,5.021,0,0,0,2.51-1.464,7.108,7.108,0,0,0,1.674-5.439,1.087,1.087,0,0,0,.837.418,1.255,1.255,0,1,0,0-2.51.957.957,0,0,0-1.046.837c0-.209-.209-.628-.209-.837a1.15,1.15,0,0,1,.628-1.046c.209-.209.418-.209.418-.628a.45.45,0,0,0-.418-.418,2.973,2.973,0,0,0-1.255.418c-.628,0-.837-.418-.418-.837.209-.209.837-.837.209-1.255s-1.255.628-1.883.628c-.837,0-.209-1.255-.209-1.674,0-.209-.209-.628-.418-.628-.628.209-.837,1.046-1.255,1.464-.628.628-.837-.628-1.046-1.046,0-.209-.418-.837-.628-.837-1.046-.209-.418,1.674-.837,1.883-.209.209-.628-.418-.837-.628s-.628-1.046-.837-.628c-.418.418.209,1.255-.209,1.883s-1.464-.209-1.883-.418-.628,0-.628.418.418.837.628,1.255c.209.628-.628.628-1.046.418-.209,0-.628-.209-.837,0-.418,0-.209.418-.209.628a2.98,2.98,0,0,1,.837.418c.209.209.418.418.418.628a2.274,2.274,0,0,1-.209,1.046,1.15,1.15,0,0,0-1.046-.628,1.206,1.206,0,0,0-1.255,1.255,1.35,1.35,0,0,0,1.255,1.255,1.6,1.6,0,0,0,1.046-.418,3.56,3.56,0,0,0,.209,1.464,7.31,7.31,0,0,0,1.046,2.72,7.1,7.1,0,0,0,1.255,1.255,7.734,7.734,0,0,0,2.3,1.046,3.878,3.878,0,0,1,1.464.418l.418.209V79.5c.209.209-.209.628-.418.628a11.991,11.991,0,0,1-2.929.837c-1.255.418-1.674.209-1.464,1.883,0,.418-.209.628-.628.418-.209,0-.209,0-.418-.209-1.255-1.046-2.51-1.883-3.975-2.929,0,0-.209-.418,0-.418.209-.209.418-.418.418-.628.209-.209.209-.418.418-.837,0-.209,0-.418-.209-.418h-.418l-.418.418-.418.418v-.628a2.653,2.653,0,0,0-.209-1.255.2.2,0,0,0-.209-.209.29.29,0,0,0-.418,0c0,.209-.209.209-.209.418v1.046l-.209-.209a.2.2,0,0,1-.209-.209l-.628-.628a.73.73,0,0,0-.418-.209h-.418c-.209,0-.209,0-.209.209s.209.209.209.418l.628.628c.209,0,.209.209.418.209l.209.209a.2.2,0,0,0,.209.209c-.418,0-.628-.209-1.046-.209s-.837-.209-1.046.209c0,.418.418.418.837.628.209,0,.418.209.628.209a2.887,2.887,0,0,0-.837.628s-.209.418,0,.418h.418a10.2,10.2,0,0,1,1.464-.628c.418-.209.628-.209.837.209l1.255,1.255a13.537,13.537,0,0,0,1.883,1.674,2.692,2.692,0,0,0,2.51.209c.209-.209.418,0,.628.209s.628,1.046.837,1.046a9.06,9.06,0,0,1-.209,1.046,31.3,31.3,0,0,0-1.255,6.067.45.45,0,0,1-.418.418,15.833,15.833,0,0,0-3.138.209,44.04,44.04,0,0,0-5.23.418,2.037,2.037,0,0,0-2.092,1.674,51.8,51.8,0,0,0-2.092,8.159c0,.209-.209.209-.209.418h-.209v-1.255c-.418.209-.628.209-1.046.418a6.962,6.962,0,0,1,.628,1.255c-.628-.209-1.046-.209-.837.418a.555.555,0,0,1-.628.628,2.458,2.458,0,0,0-2.3,2.092c0,.209-.209.209-.418.209-.418,0-.628.209-.837.628a1.938,1.938,0,0,0,.628,2.51,12.8,12.8,0,0,0,2.51,1.046,24.325,24.325,0,0,0,3.766.837c.209,0,.418.209.418.628a3.977,3.977,0,0,0,1.464,2.3,4.114,4.114,0,0,0,4.6-.209,3.715,3.715,0,0,0,1.464-3.766,2.931,2.931,0,0,0-1.883-2.51c-.418-.209-.418-.418-.418-.628.418-1.674,1.046-3.347,1.464-4.812.209-1.046.209-1.046,1.255-.628h0c.418,0,.418.209.418.628a12.413,12.413,0,0,0,0,4.812,10.589,10.589,0,0,0,5.23,7.322,15.663,15.663,0,0,0,6.9,2.092,10.3,10.3,0,0,0,6.067-1.255,12.581,12.581,0,0,0,6.276-10.041A11.424,11.424,0,0,0,222.454,96.862Zm-5.021-26.568a.418.418,0,1,1-.418.418A.45.45,0,0,1,217.434,70.294ZM203,71.967a.418.418,0,1,1,.418-.418A.45.45,0,0,1,203,71.967Zm14.225,13.179,1.883,1.255a.768.768,0,0,1,.209.628c-.209,2.3-.628,4.393-.837,6.694,0,.418-.209.837-.837.628h-.209a.768.768,0,0,0-.209.628c-.418.209-.628,0-.628-.418,0-1.046.209-2.092.209-3.138.209-1.883.209-3.766.418-5.439C217.015,85.565,217.224,85.356,217.224,85.147ZM215.132,99.79a23.048,23.048,0,0,0-.418,3.766c0,.628-.628.837-1.046,1.046-.209.209-.628.418-.837.628a2.654,2.654,0,0,1-1.255-.209c-1.883-.628-3.556-1.046-5.439-1.674-.209,0-.418-.209-.209-.418a8.761,8.761,0,0,1,2.3-3.347.768.768,0,0,1,.628-.209h1.883a3.232,3.232,0,0,0,3.347-1.674c.209-.418,1.046-.628,1.464-.628.209,0,.209.209.209.418A4.217,4.217,0,0,0,215.132,99.79Zm.837,6.485c0,.837-.418,1.464-1.046,1.464a1.43,1.43,0,0,1-1.464-1.464,1.4,1.4,0,0,1,1.464-1.255C215.551,105.02,215.969,105.439,215.969,106.275Zm-10.251-2.092c1.046.209,2.092.628,3.138.837a15.677,15.677,0,0,0,3.347,1.046c.418.209.628.209.628.628.418,1.464,1.046,1.883,2.72,1.464a1.83,1.83,0,0,0,1.255-1.883c-.209-.837-.209-1.674-1.046-2.3a.73.73,0,0,1-.209-.418l.628-6.276a.45.45,0,0,1,.418-.418c3.138.837,5.858,2.092,7.322,5.021a5.571,5.571,0,0,1,.628,2.51,12.035,12.035,0,0,1-1.046,5.439,8.479,8.479,0,0,1-1.046,1.883,9.1,9.1,0,0,1-1.464,1.255,10.267,10.267,0,0,1-6.485,1.883H214.3a8.6,8.6,0,0,1-5.439-1.883,10.072,10.072,0,0,1-3.138-4.184,7.433,7.433,0,0,1-.418-2.092v-2.3C205.091,103.974,205.091,103.974,205.719,104.183Zm10.669-24.058c.418,0,.837.837.418,1.046-.209,0-.209.209-.418.209a.45.45,0,0,1-.418-.418C215.76,80.544,215.969,80.126,216.388,80.126ZM212.2,81.8a1.491,1.491,0,0,1,1.255-.628h.418a3.994,3.994,0,0,1,1.674.628,1.087,1.087,0,0,0,.837.418.45.45,0,0,1,.418.418c0,.209-.209.628-.209.837s-.209.628-.209.837c-.209.628-.209,1.046-.837.837a2.974,2.974,0,0,1-1.255-.418,11.494,11.494,0,0,1-1.883-1.464.2.2,0,0,0-.209-.209C212.2,82.636,211.785,82.218,212.2,81.8Zm3.975,5.439c-.209,2.3-.418,4.393-.418,6.694,0,.628,0,.628-.837.628h0c-.837,0-.837,0-.628-.837,0-2.092,0-4.184.209-6.276a3.56,3.56,0,0,1,.209-1.464c0-.418.209-.418.418-.418h.209C216.388,85.983,216.388,85.983,216.178,87.238Zm-5.858-9.2a5.625,5.625,0,0,1-5.648-5.648,6.015,6.015,0,0,1,1.464-3.766l.628-.628h.209a5.278,5.278,0,0,1,3.556-1.255,5.625,5.625,0,0,1,5.648,5.648A5.947,5.947,0,0,1,210.321,78.034ZM206.974,84.1c-.209-.418-.209-1.046-.418-1.464,0-.628.628-.628,1.046-.837a14.408,14.408,0,0,0,1.674-.628h.209l-.628,1.255c-.209.628-.418,1.046-.628,1.674-.209.418-.209.418-.628.418C207.392,84.31,207.183,84.31,206.974,84.1Zm-.418,8.577a40.393,40.393,0,0,1,2.72-9.832c.418-.628,1.046-1.255,1.464-1.883.209-.209.418-.209.837-.418,0,.628-.209,1.046-.209,1.464a5.792,5.792,0,0,0,.209,1.883c.209.837,1.046,1.046,1.674,1.464.418.209.628.418.418.837-.209.837,0,1.883-.209,2.72a20.293,20.293,0,0,1-.209,3.556c0,.837-.209.837-.837.837h-5.648A.917.917,0,0,1,206.555,92.678ZM188.983,106.9l1.883-1.255c.209-.209.628,0,1.046,0a.769.769,0,0,0,.628-.209c.209-.418.418-.418.837-.209h.209v-.837a2.225,2.225,0,0,1,1.883,2.092c.209,1.464,0,1.046-1.046,1.046H189.61c-.209,0-.418-.209-.628-.209S188.774,107.112,188.983,106.9Zm4.812,4.6c0,.209,0,.418-.418.418-1.464-.418-2.929-.628-4.184-1.046a2.027,2.027,0,0,1-1.674-1.464c-.209-.418,0-.628.418-.418,2.3,0,4.393.209,6.694.209h.418c-.209.418-.628.837-.628,1.255C194,110.669,194,111.087,193.794,111.505Zm6.694.837a3.217,3.217,0,0,1-3.138,3.138,2.992,2.992,0,0,1-2.929-2.929,2.806,2.806,0,0,1,3.138-2.929A2.423,2.423,0,0,1,200.489,112.342Zm1.883-10.46a2.974,2.974,0,0,0-1.255-.418c-.209-.209-.418,0-.628.209l-1.255,4.393c-.209.628-.418,1.464-.628,2.092,0,.418-.209.418-.628.418H196.3c-.209,0-.209-.209-.418-.209h0c-.209-1.255-.209-1.464,1.046-1.464h.209c.209-2.929.418-5.648.837-8.577,0-.837.418-1.046,1.255-.837a16.422,16.422,0,0,0,4.6,1.046c.209,0,.209,0,.418.209a.2.2,0,0,1,.209.209c-.209.418-.418.628-.418,1.046-.418.628-.628,1.255-1.046,1.883C203,101.882,202.79,102.091,202.371,101.882Zm19.664,12.552a9.613,9.613,0,0,1-6.276,2.72,11.645,11.645,0,0,1-10.041-4.393,11.879,11.879,0,0,1-2.51-5.439c-.628-4.184.628-8.368,4.812-10.669a15.012,15.012,0,0,1,7.949-1.464c.628,0,1.255.209,1.883.209v.209c-.209,1.255,0,1.046-1.464.837a15.388,15.388,0,0,0-7.531,1.046,7.524,7.524,0,0,0-4.6,7.113c0,1.674-.209,3.556.628,5.021a9.881,9.881,0,0,0,8.368,6.067,8.543,8.543,0,0,0,3.975-.209,8.694,8.694,0,0,0,6.067-4.393c2.092-3.347,2.092-6.694.628-10.251a6.575,6.575,0,0,0-3.766-3.347c-.209-.209-.628-.209-.837-.418a.788.788,0,0,1-.209-1.255h.418c3.556,1.464,5.858,3.766,6.485,7.74A12.563,12.563,0,0,1,222.036,114.434Z" transform="translate(-187.1 -63.792)" fill="#adcb4a"/>
        <path id="Trazado_4254" data-name="Trazado 4254" d="M199.575,69.956h-2.72A1.35,1.35,0,0,1,195.6,68.7V67.655a1.35,1.35,0,0,1,1.255-1.255h2.72a1.35,1.35,0,0,1,1.255,1.255v.837A1.4,1.4,0,0,1,199.575,69.956Zm-2.72-2.72a.555.555,0,0,0-.628.628V68.7a.555.555,0,0,0,.628.628h2.72a.555.555,0,0,0,.628-.628V67.655a.555.555,0,0,0-.628-.628h-2.72Z" transform="translate(-177.818 -60.945)" fill="#adcb4a"/>
        <path id="Trazado_4255" data-name="Trazado 4255" d="M202.175,69.956h-2.72A1.35,1.35,0,0,1,198.2,68.7V67.655a1.35,1.35,0,0,1,1.255-1.255h2.72a1.35,1.35,0,0,1,1.255,1.255v.837A1.4,1.4,0,0,1,202.175,69.956Zm-2.72-2.72a.555.555,0,0,0-.628.628V68.7a.555.555,0,0,0,.628.628h2.72a.555.555,0,0,0,.628-.628V67.655a.555.555,0,0,0-.628-.628h-2.72Z" transform="translate(-174.979 -60.945)" fill="#adcb4a"/>
        <rect id="Rectángulo_629" data-name="Rectángulo 629" width="1.046" height="0.418" transform="translate(17.154 6.71)" fill="#adcb4a"/>
        <rect id="Rectángulo_630" data-name="Rectángulo 630" width="0.837" height="0.418" transform="translate(22.803 6.71)" fill="#adcb4a"/>
        <rect id="Rectángulo_631" data-name="Rectángulo 631" width="0.628" height="0.418" transform="translate(28.242 6.501)" fill="#adcb4a"/>
        <path id="Trazado_4256" data-name="Trazado 4256" d="M197.218,66.9c-.209,0-.418.418-.418.837s.209.837.418.837.418-.418.418-.837C197.637,67.109,197.428,66.9,197.218,66.9Z" transform="translate(-176.508 -60.399)" fill="#adcb4a"/>
        <path id="Trazado_4257" data-name="Trazado 4257" d="M199.418,66.9c-.209,0-.418.418-.418.837s.209.837.418.837.418-.418.418-.837A2.29,2.29,0,0,0,199.418,66.9Z" transform="translate(-174.105 -60.399)" fill="#adcb4a"/>
        <path id="Trazado_4258" data-name="Trazado 4258" d="M199.947,71.529a3.281,3.281,0,0,1-3.347-2.3c0-.209,0-.418.209-.418s.418,0,.418.209a2.771,2.771,0,0,0,2.72,1.883c1.464,0,2.72-.837,2.72-2.092,0-.209.209-.209.418-.209s.209.209.209.418A3.225,3.225,0,0,1,199.947,71.529Z" transform="translate(-176.726 -58.542)" fill="#adcb4a"/>
        <path id="Trazado_4259" data-name="Trazado 4259" d="M194.429,87.664a1.464,1.464,0,1,1-1.464-1.464A1.43,1.43,0,0,1,194.429,87.664Z" transform="translate(-182.295 -39.324)" fill="#adcb4a"/>
        <path id="Trazado_4260" data-name="Trazado 4260" d="M200.875,75.909a3.87,3.87,0,0,0-2.51,0,1.775,1.775,0,0,0-1.464,1.674c0,1.046,1.255,1.883,2.72,1.883s2.72-.837,2.72-1.883A1.775,1.775,0,0,0,200.875,75.909Zm-1.255,2.72c-.209,0-.418-.418-.418-1.046h.837C200.038,78,199.829,78.629,199.62,78.629Zm-.418-1.464c0-.418.209-.628.418-.628s.418.209.418.628H199.2Zm1.046-.209c0-.628-.418-1.046-.628-1.046s-.628.418-.628,1.046c-.628,0-1.046-.209-1.046-.628s.628-.628,1.674-.628c.837,0,1.674.209,1.674.628S200.875,76.955,200.247,76.955Zm-3.138.418a1.586,1.586,0,0,1,.418-.837h0c0,.418.628.628,1.464.837h0a2,2,0,0,0,.418,1.464C198.155,79.047,197.109,78.42,197.109,77.374Zm2.72,1.674a2.438,2.438,0,0,0,.418-1.464h0c.837-.209,1.464-.418,1.464-.837h0a1.586,1.586,0,0,1,.418.837A2.173,2.173,0,0,1,199.829,79.047Z" transform="translate(-176.399 -50.789)" fill="#adcb4a"/>
      </g>
    </g>
    <g id="Grupo_3997" data-name="Grupo 3997" transform="translate(411.4 80.156)">
      <g id="Grupo_3984" data-name="Grupo 3984" transform="translate(10.041 23.276)">
        <path id="Trazado_4261" data-name="Trazado 4261" d="M231.947,84.775c-1.464,0-2.72-.837-2.72-1.883s1.255-1.883,2.72-1.883,2.72.837,2.72,1.883-1.255,1.883-2.72,1.883m1.464-3.766a5.23,5.23,0,0,0-2.929,0c-1.046.418-1.883,1.046-1.883,1.883,0,1.255,1.464,2.092,3.138,2.092,1.883,0,3.138-.837,3.138-2.092C235.085,82.055,234.457,81.428,233.411,81.009Z" transform="translate(-228.6 -80.8)"/>
        <path id="Trazado_4262" data-name="Trazado 4262" d="M231.4,82.364c-1.046,0-1.883-.209-1.883-.628s.837-.628,1.883-.628,1.883.209,1.883.628-.837.628-1.883.628m0-1.464c-1.255,0-2.3.418-2.3,1.046s1.046,1.046,2.3,1.046,2.3-.418,2.3-1.046S232.656,80.9,231.4,80.9Z" transform="translate(-228.054 -80.691)"/>
        <path id="Trazado_4263" data-name="Trazado 4263" d="M230.328,82.364c0-.628.209-.837.418-.837s.418.418.418.837h.209c0-.837-.418-1.464-.837-1.464s-.628.628-.837,1.464h.628" transform="translate(-227.399 -80.691)"/>
        <path id="Trazado_4264" data-name="Trazado 4264" d="M230.328,81.7v.209c0,.628.209,1.255.418,1.255s.418-.628.418-1.255V81.7h.209v.418c0,1.046-.418,1.883-.837,1.883s-.837-.837-.837-1.883V81.7h.628" transform="translate(-227.399 -79.817)"/>
      </g>
      <g id="Grupo_3995" data-name="Grupo 3995" transform="translate(0 3.628)">
        <g id="Grupo_3993" data-name="Grupo 3993">
          <g id="Grupo_3989" data-name="Grupo 3989">
            <g id="Grupo_3985" data-name="Grupo 3985" transform="translate(7.949)">
              <path id="Trazado_4265" data-name="Trazado 4265" d="M234.5,84.99a6.773,6.773,0,0,0,5.021-3.556,6.876,6.876,0,0,0,.837-3.556c0-1.255-.209-1.883-1.255-2.3-.628-.418-1.046-1.046-1.674-1.464a2.874,2.874,0,0,0-2.51-.837c-1.046.209-.628-1.255-1.255-1.674-.837-.628-2.72.418-3.347,1.046a9.07,9.07,0,0,0-2.72,6.276,6.108,6.108,0,0,0,.418,1.883,5.777,5.777,0,0,0,5.439,4.184A.934.934,0,0,0,234.5,84.99Z" transform="translate(-227.6 -71.407)" fill="none"/>
            </g>
            <g id="Grupo_3986" data-name="Grupo 3986" transform="translate(0 29.34)">
              <path id="Trazado_4266" data-name="Trazado 4266" d="M226.938,86.2c-.837-.628-2.3-1.255-2.929-.209a1.886,1.886,0,0,0-.209,1.046,3.941,3.941,0,0,0,.418,1.674c.209.209.209.418.418.628a1.344,1.344,0,0,0,1.883.209c.628-.418,1.464-1.255,1.255-2.092A1.413,1.413,0,0,0,226.938,86.2Z" transform="translate(-223.8 -85.433)" fill="none"/>
            </g>
            <g id="Grupo_3987" data-name="Grupo 3987" transform="translate(7.658 18.394)">
              <path id="Trazado_4267" data-name="Trazado 4267" d="M233.4,80.2a6.476,6.476,0,0,0-4.812,2.51,3.753,3.753,0,0,0-1.046,1.464c-.209.418,0,.837.418,1.255a4.574,4.574,0,0,0,1.046.628,10.8,10.8,0,0,0,2.3.418h.628a25.754,25.754,0,0,0,4.184-.418c.418-.209.837-.209,1.255-.628a1.39,1.39,0,0,0,.837-1.046,4.923,4.923,0,0,0-.418-1.674C237.166,81.037,235.283,80.2,233.4,80.2Z" transform="translate(-227.461 -80.2)" fill="none"/>
            </g>
            <g id="Grupo_3988" data-name="Grupo 3988" transform="translate(23.927 28.226)">
              <path id="Trazado_4268" data-name="Trazado 4268" d="M238.506,84.9a6.108,6.108,0,0,0-1.883.418,2.423,2.423,0,0,0-1.255,2.929,1.633,1.633,0,0,0,.837.837,1.6,1.6,0,0,0,1.046.418,1.689,1.689,0,0,0,1.883-.837,14.412,14.412,0,0,0,.628-1.674v-.209a3.56,3.56,0,0,0-.209-1.464A1.6,1.6,0,0,1,238.506,84.9Z" transform="translate(-235.237 -84.9)" fill="none"/>
            </g>
          </g>
          <g id="Grupo_3990" data-name="Grupo 3990" transform="translate(15.062 4.587)">
            <path id="Trazado_4269" data-name="Trazado 4269" d="M231.418,75.9c.209,0,.628-.418.628-1.046s-.209-1.255-.418-1.255-.628.418-.628,1.046S231.209,75.9,231.418,75.9Z" transform="translate(-231 -73.6)"/>
          </g>
          <g id="Grupo_3991" data-name="Grupo 3991" transform="translate(12.761 4.377)">
            <path id="Trazado_4270" data-name="Trazado 4270" d="M230.318,75.8c.209,0,.628-.418.628-1.046s-.209-1.255-.418-1.255-.628.418-.628,1.046S230.109,75.8,230.318,75.8Z" transform="translate(-229.9 -73.5)"/>
          </g>
          <g id="Grupo_3992" data-name="Grupo 3992" transform="translate(9.414 7.515)">
            <path id="Trazado_4271" data-name="Trazado 4271" d="M233.53,79.812h-.837a4.593,4.593,0,0,1-4.393-4.6.209.209,0,0,1,.418,0h0a3.937,3.937,0,0,0,3.766,3.975c3.766.418,4.393-2.51,4.393-2.72s.209-.209.418-.209.209.209.209.418C237.714,77.72,236.459,79.812,233.53,79.812Z" transform="translate(-228.3 -75)"/>
          </g>
        </g>
        <g id="Grupo_3994" data-name="Grupo 3994" transform="translate(10.041 25.088)">
          <path id="Trazado_4272" data-name="Trazado 4272" d="M231.738,87.584c-1.674,0-2.929-.837-2.929-2.092,0-1.046,1.255-2.092,2.929-2.092s2.929.837,2.929,2.092-1.255,2.092-2.929,2.092m1.674-3.766a5.23,5.23,0,0,0-2.929,0c-1.046.418-1.883,1.046-1.883,1.883,0,1.255,1.464,2.092,3.347,2.092s3.347-1.046,3.347-2.092A2.813,2.813,0,0,0,233.411,83.818Z" transform="translate(-228.6 -83.4)" fill="#fff"/>
          <path id="Trazado_4273" data-name="Trazado 4273" d="M231.41,85.174c-1.046,0-1.883-.209-1.883-.628s.837-.628,1.883-.628,1.883.209,1.883.628c.209.209-.628.628-1.883.628m0-1.674c-1.464,0-2.51.418-2.51,1.046s1.046,1.046,2.51,1.046,2.51-.418,2.51-1.046C233.921,84.128,232.875,83.5,231.41,83.5Z" transform="translate(-228.272 -83.291)" fill="#fff"/>
          <path id="Trazado_4274" data-name="Trazado 4274" d="M230.228,85.064c0-.628.209-1.046.418-1.046s.418.418.418,1.046h.209c0-.837-.418-1.464-.837-1.464s-.628.628-.837,1.464h.628" transform="translate(-227.508 -83.182)" fill="#fff"/>
          <path id="Trazado_4275" data-name="Trazado 4275" d="M230.228,84.4v.209c0,.628.209,1.255.418,1.255s.418-.628.418-1.255V84.4h.209v.418c0,1.046-.418,1.883-.837,1.883s-.837-.837-.837-1.883V84.4h.628" transform="translate(-227.508 -82.308)" fill="#fff"/>
        </g>
      </g>
      <g id="Grupo_3996" data-name="Grupo 3996" transform="translate(0)">
        <path id="Trazado_4276" data-name="Trazado 4276" d="M231.532,73.224a4,4,0,0,0,2.3,0s-.418-2.72-1.674-2.3C231.114,71.341,230.7,72.806,231.532,73.224Z" transform="translate(-215.843 -68.357)" fill="none"/>
        <path id="Trazado_4277" data-name="Trazado 4277" d="M234.174,74.276c1.046-.628,1.464-1.883.628-2.3a3.478,3.478,0,0,0-2.3.209S233.128,74.9,234.174,74.276Z" transform="translate(-214.3 -67.317)" fill="none"/>
        <path id="Trazado_4278" data-name="Trazado 4278" d="M226.938,86.2c-.837-.628-2.3-1.255-2.929-.209a1.886,1.886,0,0,0-.209,1.046,3.941,3.941,0,0,0,.418,1.674c.209.209.209.418.418.628a1.344,1.344,0,0,0,1.883.209c.628-.418,1.464-1.255,1.255-2.092A1.413,1.413,0,0,0,226.938,86.2Z" transform="translate(-223.8 -52.465)" fill="none"/>
        <path id="Trazado_4279" data-name="Trazado 4279" d="M234.5,84.99a6.773,6.773,0,0,0,5.021-3.556,6.876,6.876,0,0,0,.837-3.556c0-1.255-.209-1.883-1.255-2.3-.628-.418-1.046-1.046-1.674-1.464a2.874,2.874,0,0,0-2.51-.837c-1.046.209-.628-1.255-1.255-1.674-.837-.628-2.72.418-3.347,1.046a9.07,9.07,0,0,0-2.72,6.276,6.108,6.108,0,0,0,.418,1.883,5.777,5.777,0,0,0,5.439,4.184A.934.934,0,0,0,234.5,84.99Z" transform="translate(-219.651 -67.78)" fill="none"/>
        <path id="Trazado_4280" data-name="Trazado 4280" d="M233.4,80.2a6.476,6.476,0,0,0-4.812,2.51,3.753,3.753,0,0,0-1.046,1.464c-.209.418,0,.837.418,1.255a4.574,4.574,0,0,0,1.046.628,10.8,10.8,0,0,0,2.3.418h.628a25.754,25.754,0,0,0,4.184-.418c.418-.209.837-.209,1.255-.628a1.39,1.39,0,0,0,.837-1.046,4.923,4.923,0,0,0-.418-1.674C237.166,81.037,235.283,80.2,233.4,80.2Z" transform="translate(-219.803 -58.179)" fill="none"/>
        <path id="Trazado_4281" data-name="Trazado 4281" d="M238.506,84.9a6.108,6.108,0,0,0-1.883.418,2.423,2.423,0,0,0-1.255,2.929,1.633,1.633,0,0,0,.837.837,1.6,1.6,0,0,0,1.046.418,1.689,1.689,0,0,0,1.883-.837,14.412,14.412,0,0,0,.628-1.674v-.209a3.56,3.56,0,0,0-.209-1.464A1.6,1.6,0,0,1,238.506,84.9Z" transform="translate(-211.311 -53.046)" fill="none"/>
        <path id="Trazado_4282" data-name="Trazado 4282" d="M252.46,102.364a2.4,2.4,0,0,0-2.72-1.255,6.263,6.263,0,0,0-1.674.837,6.357,6.357,0,0,1-1.464,1.046,2.223,2.223,0,0,1-1.674-.209c-.628-.209-2.092-.418-2.3-1.255a2.254,2.254,0,0,1,.418-1.674,5.791,5.791,0,0,0,.209-1.883,12.348,12.348,0,0,0-.418-2.929c-.209-.837-.209-1.464.628-1.883a7.521,7.521,0,0,1,2.3-.418,8.477,8.477,0,0,1,2.3,0c.418,0,.628.209,1.046.418,0,0,.837.628.837.418s-.209-.418,0-.628a1.258,1.258,0,0,1,.837-.209v-.209c0-.209-.209-.418,0-.628,0-.209.418-.209.418-.418.209-.418-.628-.628-.418-1.046v-.418c-.418,0-.418.209-.628.418s-.209.418-.418.418c-.418.418-.628.209-.837-.209,0-.209,0-.209-.209-.418a.73.73,0,0,0-.418-.209l-.209.209c-.209.418,0,1.464-.628,1.674a3.56,3.56,0,0,1-1.464.209c-1.464,0-3.138.628-4.393,0a18.4,18.4,0,0,1-2.092-1.255c-.628-.209-1.255-.418-1.255-1.255V88.138c0-.628.837-.837,1.464-1.046a11.794,11.794,0,0,0,2.51-.837,7.284,7.284,0,0,0,2.3-2.72,6.648,6.648,0,0,0,.628-1.883,2.774,2.774,0,0,1,1.255-2.092c.209,0,.418-.418.628-.628a.636.636,0,0,0,0-.837c-.209-.418-.418-.837-1.046-.837h-.418a.45.45,0,0,1-.418-.418c0-.209,0-.418.209-.418a1.765,1.765,0,0,0,.418-1.464c0-.628-.209-1.255-1.046-1.046h-.628a.4.4,0,0,1-.209-.628,1.265,1.265,0,0,1,1.255-.628H246.6a1.581,1.581,0,0,0,.837-.209.45.45,0,0,0,.418-.418c0-.209-.209-.209-.418-.209-.418,0-.418-.209-.418-.418v-.628c0-.628,0-.837-.628-1.046h-.209a1.016,1.016,0,0,0-1.255.628.877.877,0,0,1-1.255.628,1.152,1.152,0,0,0-1.046.418c-.209.209-.628.418-.837.209a4.708,4.708,0,0,0-2.929.209c-.209,0-.418.209-.837.209-.209,0-.418,0-.418.209a12.422,12.422,0,0,0-1.674.837A7.388,7.388,0,0,0,233.214,76c-.209.209-.209.418-.418.418a1.258,1.258,0,0,0-.837.209,1.124,1.124,0,0,0-.628,1.883.2.2,0,0,0,.209.209,7.431,7.431,0,0,1,.837,1.883,8.581,8.581,0,0,0,.209,2.3,6.047,6.047,0,0,0,2.3,3.766,5.485,5.485,0,0,0,1.883,1.046c.628.209,1.674.418,1.674,1.255,0,1.046.209,2.092-1.046,2.72a11.481,11.481,0,0,1-3.556,1.046,34.338,34.338,0,0,1-4.812-.418c-1.046-.209-.418-1.255-.837-1.883-.418-.418-.628.209-.628.418-.209.418-.418.209-.628,0-.418-.209-.628.418-1.046.628-.209.209-.837,0-.837.209s.418.209.628.418c.418.418-.209.837-.418,1.255.628.209.837,0,1.046.628.209.418.418.418.837,0a1.39,1.39,0,0,1,1.046-.837c.418-.209,1.046,0,1.464,0,.628,0,1.046.209,1.674.209.418,0,.837.209,1.255.209,1.046.209,1.464.418,1.046,1.464a9.939,9.939,0,0,0-1.883,3.975,8.477,8.477,0,0,0,0,2.3c.209.837.837,1.464.209,2.3a2.089,2.089,0,0,1-1.046.837,1.258,1.258,0,0,1-.837.209c-.837-.418-1.255-1.046-2.092-1.464a3.534,3.534,0,0,0-2.092-.628,1.617,1.617,0,0,0-1.464,1.674v1.464a4.387,4.387,0,0,0,.837,2.3c.628.837,1.255.837,2.3.837.418,0,.837-.418,1.255-.628l.837-.837a10.966,10.966,0,0,1,2.092-2.3,2.117,2.117,0,0,1,1.464-.837c1.046-.209,1.883.418,2.929.628a9.062,9.062,0,0,1,1.046.209,12.874,12.874,0,0,0,3.975-.418,3.372,3.372,0,0,0,1.464-.837,4.078,4.078,0,0,1,1.674-.209,1.6,1.6,0,0,1,1.046.418,8.479,8.479,0,0,1,1.883,1.046c.418.209.628.628,1.046,1.046a2.887,2.887,0,0,1,.628.837l1.255,1.255a2.31,2.31,0,0,0,1.674,0,4.866,4.866,0,0,0,1.674-2.51A10.007,10.007,0,0,1,252.46,102.364Zm-6.694-24.058a.418.418,0,1,1-.418.418C245.347,78.306,245.556,78.306,245.766,78.306Zm-14.644-.418a.418.418,0,1,1,.418-.418A.45.45,0,0,1,231.122,77.888Zm-4.6,28.869a1.557,1.557,0,0,1-1.883-.209c-.209-.209-.209-.418-.418-.628a3.941,3.941,0,0,1-.418-1.674,1.567,1.567,0,0,1,.209-1.046c.628-1.046,2.092-.418,2.929.209a3.753,3.753,0,0,1,1.046,1.464C227.984,105.5,227.147,106.338,226.52,106.757ZM244.3,74.331c1.046.418.628,1.674-.628,2.3-1.046.628-1.674-2.092-1.674-2.092C242.209,74.541,243.464,73.913,244.3,74.331Zm-4.184-2.092c1.046-.628,1.674,2.3,1.674,2.3a2.739,2.739,0,0,1-2.3,0C238.653,74.122,239.071,72.658,240.117,72.239ZM232.168,82.7a6.108,6.108,0,0,1-.418-1.883,7.591,7.591,0,0,1,2.72-6.276c.628-.628,2.51-1.674,3.347-1.046.628.418.209,1.883,1.255,1.674a2.691,2.691,0,0,1,2.51.837c.628.628,1.046,1.255,1.674,1.464,1.046.418,1.255,1.255,1.255,2.3a9.856,9.856,0,0,1-.837,3.556,7.349,7.349,0,0,1-5.021,3.556h-1.046A5.978,5.978,0,0,1,232.168,82.7Zm10.46,12.97a1.39,1.39,0,0,1-.837,1.046l-1.255.628a13.553,13.553,0,0,1-4.184.418h-.628a7.521,7.521,0,0,1-2.3-.418c-.418-.209-.837-.209-1.046-.628-.418-.418-.628-.628-.418-1.255A6.358,6.358,0,0,1,233,94a6.476,6.476,0,0,1,4.812-2.51,5.846,5.846,0,0,1,4.6,2.3C242.209,94.623,242.628,95.042,242.628,95.669Zm9.2,7.949h0a19.739,19.739,0,0,1-.628,1.883,1.689,1.689,0,0,1-1.883.837c-.418,0-.628-.209-1.046-.418-.209-.209-.628-.418-.837-.837a2.678,2.678,0,0,1,1.255-2.929c.628-.209,1.255-.628,1.883-.418a1.586,1.586,0,0,1,.837.418A1.1,1.1,0,0,1,251.832,103.619Z" transform="translate(-223.8 -69.673)"/>
      </g>
    </g>
    <g id="Grupo_3999" data-name="Grupo 3999" transform="translate(52 63.476)">
      <g id="Grupo_3998" data-name="Grupo 3998">
        <path id="Trazado_4283" data-name="Trazado 4283" d="M52,77.2h7.113c3.556,0,5.23.628,6.694,1.464a7.44,7.44,0,0,1,3.138,6.276,7.724,7.724,0,0,1-3.138,6.276c-1.464.837-3.138,1.464-6.694,1.464h-4.6v10.46H52Zm2.51,12.97h3.766c2.72,0,3.766,0,5.23-.628a4.7,4.7,0,0,0,2.929-4.6,5.016,5.016,0,0,0-2.929-4.6c-1.464-.628-2.3-.628-5.23-.628H54.51Z" transform="translate(-52 -44.774)"/>
        <path id="Trazado_4284" data-name="Trazado 4284" d="M70.478,77.2h2.929l11.087,25.731h-2.72l-3.766-8.577H66.085l-3.766,8.577H59.6ZM66.922,91.844H76.963L71.943,80.129Z" transform="translate(-43.701 -44.774)"/>
        <path id="Trazado_4285" data-name="Trazado 4285" d="M72.8,77.2h6.485c3.347,0,5.23.418,6.276,1.046a7.813,7.813,0,0,1,4.6,7.322,7.7,7.7,0,0,1-7.74,7.74l7.322,9.623H86.607L77.821,91.216c3.347,0,4.393,0,5.439-.418a5.708,5.708,0,0,0,4.184-5.439,5.632,5.632,0,0,0-2.72-5.021A9.4,9.4,0,0,0,79.7,79.292H75.31v23.43H72.8Z" transform="translate(-29.287 -44.774)"/>
        <path id="Trazado_4286" data-name="Trazado 4286" d="M99.039,79.992H93.6V77.9h13.389v2.092h-5.439v21.756h-2.3V79.992Z" transform="translate(-6.574 -44.01)"/>
        <path id="Trazado_4287" data-name="Trazado 4287" d="M113.352,77.7c6.694,0,12.761,5.23,12.761,12.343s-6.067,12.343-12.761,12.343a12.344,12.344,0,1,1,0-24.685Zm0,22.593A10.251,10.251,0,1,0,103.1,90.043,10.266,10.266,0,0,0,113.352,100.293Z" transform="translate(1.288 -44.229)"/>
        <path id="Trazado_4288" data-name="Trazado 4288" d="M114.7,77.9h6.9a14.632,14.632,0,0,1,7.74,1.883,12.07,12.07,0,0,1,5.439,10.041,11.659,11.659,0,0,1-5.439,9.832,14.632,14.632,0,0,1-7.74,1.883h-6.9ZM117,99.656h3.347c2.092,0,5.439,0,8.159-1.883a10.222,10.222,0,0,0,3.766-7.949,10.542,10.542,0,0,0-3.975-7.949c-2.092-1.464-4.393-1.883-7.949-1.883H117Z" transform="translate(16.466 -44.01)"/>
        <path id="Trazado_4289" data-name="Trazado 4289" d="M138.252,77.7A12.408,12.408,0,0,1,150.8,90.043a12.554,12.554,0,0,1-25.1,0A12.4,12.4,0,0,1,138.252,77.7Zm0,22.593A10.251,10.251,0,1,0,128,90.043,10.266,10.266,0,0,0,138.252,100.293Z" transform="translate(28.478 -44.229)"/>
        <path id="Trazado_4290" data-name="Trazado 4290" d="M140.992,95.273c.209,2.929,2.092,5.021,5.021,5.021a4.731,4.731,0,0,0,4.812-4.812c0-3.766-3.766-4.6-5.23-5.021-2.092-.628-6.276-1.464-6.276-6.276a6.7,6.7,0,0,1,13.389,0h-2.3a4.29,4.29,0,0,0-8.577-.209c0,2.929,2.51,3.556,5.648,4.393,5.858,1.464,5.858,6.067,5.858,6.9h0a7.052,7.052,0,0,1-7.113,7.113c-3.138,0-7.322-1.883-7.322-7.113Z" transform="translate(42.892 -44.229)"/>
        <path id="Trazado_4291" data-name="Trazado 4291" d="M52.1,61.9h4.184l9.623,22.593L75.53,61.9h4.184V88.468h-2.72V64.829h0L66.953,88.468h-2.3L54.82,64.829h0V88.468H52.1V61.9Z" transform="translate(-51.891 -61.482)"/>
        <path id="Trazado_4292" data-name="Trazado 4292" d="M81.316,61.7a13.809,13.809,0,1,1,0,27.614c-7.531,0-14.016-6.067-14.016-13.6A14.007,14.007,0,0,1,81.316,61.7Zm0,25.1a11.4,11.4,0,1,0,0-22.8,11.4,11.4,0,0,0,0,22.8Z" transform="translate(-35.293 -61.7)"/>
        <path id="Trazado_4293" data-name="Trazado 4293" d="M81.7,61.9h2.929l9.414,23.221L103.456,61.9h2.929L95.3,88.468h-2.72Z" transform="translate(-19.569 -61.482)" fill="#c92a34"/>
        <path id="Trazado_4294" data-name="Trazado 4294" d="M94.9,61.9h2.72V88.468H94.9Z" transform="translate(-5.155 -61.482)"/>
        <path id="Trazado_4295" data-name="Trazado 4295" d="M98.9,61.9h2.72V86.167h11.087v2.51h-13.6V61.9Z" transform="translate(-0.787 -61.482)"/>
        <path id="Trazado_4296" data-name="Trazado 4296" d="M106.7,61.9h2.72V88.468H106.7Z" transform="translate(7.731 -61.482)"/>
        <path id="Trazado_4297" data-name="Trazado 4297" d="M110.6,61.9h7.74a17.311,17.311,0,0,1,8.577,2.092,13.357,13.357,0,0,1,0,22.384,15.871,15.871,0,0,1-8.577,2.3H110.6Zm2.72,24.267h3.766c2.3,0,6.067,0,9.2-2.092a11.308,11.308,0,0,0,4.184-8.786,10.63,10.63,0,0,0-4.6-8.786c-2.3-1.464-4.812-2.092-8.786-2.092H113.32V86.167Z" transform="translate(11.989 -61.482)"/>
        <path id="Trazado_4298" data-name="Trazado 4298" d="M133.7,61.9h2.929l11.506,26.568H145.2l-3.766-9H129.094l-3.975,9H122.4Zm-3.766,15.271h10.251l-5.021-12.343Z" transform="translate(24.875 -61.482)"/>
        <path id="Trazado_4299" data-name="Trazado 4299" d="M136.1,61.9h7.74a17.311,17.311,0,0,1,8.577,2.092,13.357,13.357,0,0,1,0,22.384,15.871,15.871,0,0,1-8.577,2.3H136.1Zm2.72,24.267h3.766c2.51,0,6.067,0,9.2-2.092a11.308,11.308,0,0,0,4.184-8.786,10.63,10.63,0,0,0-4.6-8.786c-2.3-1.464-4.812-2.092-8.786-2.092H138.82Z" transform="translate(39.835 -61.482)"/>
        <path id="Trazado_4300" data-name="Trazado 4300" d="M84.22,103.131l9.832-22.8,9.623,22.8h2.72L95.516,77.4H92.587L81.5,103.131Z" transform="translate(-19.787 -44.556)" fill="#c92a34"/>
      </g>
    </g>
  </g>
</svg>
