<?xml version="1.0" encoding="utf-8"?>
<!-- Generator: Adobe Illustrator 26.2.1, SVG Export Plug-In . SVG Version: 6.00 Build 0)  -->
<svg version="1.1" id="Capa_1" xmlns="http://www.w3.org/2000/svg" xmlns:xlink="http://www.w3.org/1999/xlink" x="0px" y="0px"
	 viewBox="0 0 132.6 89.5" style="enable-background:new 0 0 132.6 89.5;" xml:space="preserve">
<style type="text/css">
	.st0{fill:#FFFFFF;}
</style>
<g id="a">
	<polygon class="st0" points="132.6,26.1 19.1,89.3 17.6,86.6 131.1,23.4 	"/>
	<rect x="17.6" y="86.5" class="st0" width="29" height="3"/>
</g>
<g id="b">
	<g>
		
			<rect x="41.9" y="48.5" transform="matrix(0.8771 -0.4802 0.4802 0.8771 -15.9745 37.5244)" class="st0" width="46.9" height="3"/>
		<path class="st0" d="M100.9,43.3c-5.6,3-12.6,1-15.7-4.6s-1-12.6,4.6-15.7s12.6-1,15.7,4.6S106.5,40.3,100.9,43.3z M91.3,25.7
			c-4.1,2.3-5.7,7.5-3.4,11.6s7.5,5.7,11.6,3.4s5.7-7.5,3.4-11.6S95.4,23.4,91.3,25.7z"/>
		<path class="st0" d="M97.9,37.7c-2.6,1.4-5.9,0.5-7.3-2.1s-0.5-5.9,2.1-7.3s5.9-0.5,7.3,2.1S100.5,36.3,97.9,37.7z M94.1,30.9
			c-1.2,0.6-1.6,2.1-0.9,3.2s2.1,1.6,3.2,1s1.6-2.1,0.9-3.3S95.3,30.3,94.1,30.9L94.1,30.9z"/>
		<g>
			<path class="st0" d="M41.4,75.9c-5.6,3.1-12.6,1-15.7-4.6s-1-12.6,4.6-15.7s12.6-1,15.7,4.6S47,72.8,41.4,75.9z M31.8,58.3
				c-4.1,2.3-5.6,7.5-3.4,11.6s7.5,5.7,11.6,3.4s5.7-7.5,3.4-11.6S35.9,56,31.8,58.3z"/>
			<path class="st0" d="M38.3,70.3c-2.6,1.4-5.9,0.5-7.3-2.1s-0.5-5.9,2.1-7.3s5.9-0.5,7.3,2.1S41,68.9,38.3,70.3z M34.6,63.5
				c-1.2,0.6-1.6,2.1-1,3.3s2.1,1.6,3.3,0.9s1.6-2.1,1-3.3S35.8,62.8,34.6,63.5L34.6,63.5z"/>
		</g>
		<path class="st0" d="M27.8,71.9l-6.2,3.4c-2.7,1.5-6.1,0.5-7.6-2.2s-0.5-6.1,2.2-7.6l4.6-2.5l1.4,2.6l-4.6,2.5
			c-1.3,0.7-1.7,2.3-1,3.6s2.3,1.7,3.5,1l6.2-3.4C26.3,69.3,27.8,71.9,27.8,71.9z"/>
		<polygon class="st0" points="80.7,33.5 45.1,53 34.2,48.7 12.1,60.8 10.7,58.1 34,45.4 44.9,49.7 79.3,30.9 		"/>
		<path class="st0" d="M112.8,25.7l-6.9,3.8l-1.4-2.6l6.9-3.8c2.6-1.4,3.5-4.6,2.1-7.2l-0.1-0.2l-8.8,4.8l-1.4-2.6l8.8-4.8
			c1.5-0.8,3.3-0.3,4.1,1.2l0.1,0.2C118.3,18.5,116.8,23.5,112.8,25.7L112.8,25.7z"/>
		<path class="st0" d="M17.4,66.9l-2.8,1.2L0.5,34.5c-1.2-3,0-6.4,2.8-8l47-25.7c1.8-1,4.1-1,6-0.1l17.5,9.6l21.9-7.4
			c4.4-1.5,9.2,0,12,3.7l0.1,0.1l5,7.6l-2.5,1.6l-4.9-7.6c-2-2.6-5.5-3.7-8.6-2.6l-23.2,7.8L54.8,3.3c-1-0.5-2.1-0.5-3.1,0.1
			l-47,25.7c-1.5,0.8-2.1,2.6-1.5,4.2L17.4,66.9L17.4,66.9z"/>
		<path class="st0" d="M53.3,10.7l-3.5,1.9L48.3,10l3.5-1.9L53.3,10.7z M46.3,14.6l-3.5,1.9l-1.4-2.6l3.5-1.9L46.3,14.6z"/>
		<path class="st0" d="M74.2,13L22.1,41.5c-0.9,0.5-1.9,0.6-2.8,0.2s-1.7-1-2.1-1.9L14,32.5c-0.7-1.7-0.1-3.6,1.5-4.5l25.8-14.1
			l1.4,2.6L16.9,30.6c-0.2,0.1-0.3,0.4-0.2,0.6l3.2,7.4c0.1,0.2,0.2,0.2,0.3,0.3c0.1,0,0.2,0.1,0.4,0l52.1-28.5L74.2,13z"/>
		<rect x="38.6" y="17.1" transform="matrix(0.8771 -0.4802 0.4802 0.8771 -6.1838 22.0807)" class="st0" width="3" height="12"/>
		<rect x="46.5" y="31.7" transform="matrix(0.8771 -0.4802 0.4802 0.8771 -12.2033 27.7042)" class="st0" width="3" height="12"/>
		<path class="st0" d="M108.4,10.7l-7.3,4c-2.6,1.4-5.8,0.5-7.2-2.1l-0.9-1.7l2.6-1.4l0.9,1.7c0.6,1.1,2.1,1.6,3.2,0.9l7.3-4
			C107,8.1,108.4,10.7,108.4,10.7z"/>
	</g>
</g>
</svg>
