<?xml version="1.0" encoding="UTF-8"?><svg id="a" xmlns="http://www.w3.org/2000/svg" viewBox="0 0 204.35 25.76"><defs><style>.b{fill:#fff;}</style></defs><path class="b" d="M22.61,.02c4.96,0,9.92,.03,14.88-.02,2.17-.02,4.03,.63,5.64,2.08,1.68,1.52,3.43,2.97,5.12,4.49,.93,.84,.98,1.54,.11,2.41-2.35,2.34-4.73,4.64-7.12,6.95-.81,.78-1.83,1.2-2.91,1.48-.29,.08-.64,.29-.75,.54-.06,.15,.24,.55,.47,.71,1.49,1.07,3,2.11,4.51,3.16,.82,.57,1.19,.54,1.9-.14,5.11-4.87,10.21-9.76,15.34-14.6,1.71-1.61,3.48-3.17,5.32-4.64,1.37-1.1,3.06-1.54,4.8-1.69,7.3-.64,14.61-.24,21.91-.35,1.08-.02,2.17,0,3.25,0,.84,0,.99,.19,.8,1.01-.68,2.93-1.34,5.86-2.03,8.78-1.04,4.44-2.1,8.89-3.16,13.33l-.29,1.23c-.12,.51-.43,.81-.97,.81-2.95,0-5.9,0-8.86,0-.59,0-.8-.29-.65-.93,.38-1.54,.78-3.06,1.18-4.6,.14-.52,.28-1.04,.43-1.56,.2-.75-.1-1.17-.89-1.18-1.28-.02-2.57,0-3.86,0-2.97,0-5.94,0-8.92-.01-.24,0-.49-.17-.73-.25,.1-.24,.15-.54,.32-.71,1.01-.98,2.05-1.92,3.06-2.88,.43-.41,.94-.58,1.53-.58,3.19-.03,6.38-.08,9.58-.11,1.23-.01,1.44-.18,1.74-1.36,.47-1.84,.95-3.68,1.42-5.53,.15-.6-.08-.99-.7-.97-2.91,.06-5.82,.08-8.72,.27-1.66,.11-3.03,1.07-4.24,2.2-5.1,4.8-10.21,9.61-15.31,14.41-1.03,.97-2.05,1.97-3.07,2.94-.57,.55-1.26,.84-2.06,.84-5.16,0-10.32,.02-15.48-.02-.58,0-1.26-.23-1.71-.59-3.71-2.92-7.39-5.9-11.07-8.86-.95-.76-1.92-1.51-2.84-2.3-.21-.18-.28-.52-.41-.78,.27-.13,.53-.36,.8-.36,3.37-.02,6.75-.07,10.12,0,1.73,.04,3.17-.41,4.38-1.66,.79-.82,1.69-1.53,2.5-2.32,.58-.57,.58-.97-.02-1.53-.72-.68-1.44-1.4-2.28-1.91-.64-.39-1.46-.63-2.2-.64-5.42-.06-10.84-.05-16.27-.05-.55,0-.94,.25-1.08,.84-.46,1.97-.93,3.93-1.4,5.9-.32,1.34-.65,2.69-.96,4.03-.65,2.79-1.29,5.57-1.94,8.36-.11,.49-.22,.98-.36,1.46-.13,.44-.49,.63-.92,.63-2.93,0-5.86,.01-8.8,0-.66,0-.89-.38-.71-1.13,.3-1.27,.62-2.53,.91-3.79,.66-2.82,1.31-5.65,1.98-8.48,.4-1.72,.83-3.43,1.23-5.14,.5-2.1,.98-4.21,1.49-6.31C5.88,0,5.91,0,6.83,0h15.79V.02Z"/><path class="b" d="M179.4,25.56h-19.4c-.97,0-1.1-.21-.87-1.17,.69-2.92,1.36-5.85,2.05-8.77,.42-1.77,.86-3.54,1.27-5.32,.67-2.85,1.31-5.7,1.99-8.54,.26-1.1,.33-1.38,1.62-1.38,12.43,.02,24.86,.01,37.3,.01,1.03,0,1.14,.16,.9,1.18-.17,.7-.31,1.41-.46,2.11-.19,.95-.45,1.17-1.42,1.17-1.69,0-3.37,0-5.06,0h-21.87c-1.2,0-1.41,.18-1.67,1.33-.25,1.13-.53,2.26-.81,3.39-.17,.7,.03,.99,.74,1.04,.22,.01,.44,0,.66,0h23.8c.24,0,.48-.01,.72,.02,.43,.06,.66,.3,.56,.75-.23,1.02-.43,2.04-.75,3.03-.09,.28-.52,.49-.83,.65-.18,.09-.43,.02-.65,.02h-24.16c-1.2,0-1.47,.22-1.73,1.37-.22,.99-.46,1.99-.7,2.98-.27,1.1-.04,1.4,1.07,1.4,9.4,0,18.8,0,28.2-.01,.87,0,1.14,.32,.9,1.11-.26,.84-.4,1.71-.6,2.57-.18,.77-.5,1.03-1.3,1.03-6.49,0-12.98,0-19.46,0Z"/><path class="b" d="M133.41,25.56h-18.5c-.2,0-.41,.02-.6-.04-.49-.16-.55-.68-.1-1.03,1.18-.95,2.37-1.89,3.58-2.81,4.8-3.67,9.61-7.33,14.42-10.99,1.99-1.51,4-3,6-4.51,.13-.1,.25-.2,.35-.32,.41-.44,.3-.83-.29-.94-.27-.06-.56-.05-.84-.05-5.76,0-11.53,0-17.29,0-1.26,0-1.36-.15-1.03-1.36,.21-.75,.36-1.52,.53-2.28,.13-.58,.47-.83,1.07-.83,12.21,0,24.42,0,36.63,.02,.25,0,.68,.21,.7,.35,.03,.25-.14,.61-.34,.78-2.13,1.67-4.29,3.31-6.45,4.95-4.98,3.8-9.97,7.6-14.95,11.4-.72,.55-1.46,1.06-2.14,1.65-.24,.21-.5,.59-.47,.86,.06,.45,.53,.45,.92,.45,6.09,0,12.17,0,18.26,0,1.04,0,1.17,.19,.89,1.22-.22,.81-.39,1.64-.57,2.46-.18,.8-.45,1.03-1.28,1.03-6.17,0-12.33,0-18.5,0Z"/><path class="b" d="M102.23,25.56c-1.4,0-2.81,0-4.22,0-.69,0-.91-.25-.75-.93,.7-3.02,1.41-6.04,2.12-9.07,.76-3.26,1.52-6.51,2.28-9.77,.35-1.52,.71-3.04,1.08-4.55,.13-.54,.46-.85,1.07-.84,2.85,.02,5.7,0,8.55,0,.63,0,.85,.24,.71,.86-.5,2.23-1.02,4.45-1.54,6.67-.45,1.93-.91,3.86-1.37,5.79-.78,3.27-1.56,6.55-2.33,9.82-.09,.37-.14,.75-.23,1.12-.15,.64-.49,.9-1.15,.91-1.4,0-2.81,0-4.22,0Z"/></svg>