<?xml version="1.0" encoding="utf-8"?>
<!-- Generator: Adobe Illustrator 26.2.1, SVG Export Plug-In . SVG Version: 6.00 Build 0)  -->
<svg version="1.1" id="Capa_1" xmlns="http://www.w3.org/2000/svg" xmlns:xlink="http://www.w3.org/1999/xlink" x="0px" y="0px"
	 viewBox="0 0 63.8 62" style="enable-background:new 0 0 63.8 62;" xml:space="preserve">
<style type="text/css">
	.st0{fill:#FFFFFF;}
</style>
<g>
	<g>
		<path class="st0" d="M62.7,24.2l-2.1-2.1c-0.2-0.2-0.5-0.3-0.7-0.3h-3.1c-0.6,0-1,0.5-1,1V28h-2.1v-7.2c0-0.6-0.5-1-1-1h-6.6
			l-3.8-5.7c-0.2-0.3-0.5-0.5-0.9-0.5h-6.2v-2.1h7.2c0.6,0,1-0.5,1-1V6.4c0-0.6-0.5-1-1-1H21.9c-0.6,0-1,0.5-1,1v4.1
			c0,0.6,0.5,1,1,1h7.2v2.1h-6.2c-0.3,0-0.7,0.2-0.9,0.5l-3.8,5.7h-5.6c-0.6,0-1,0.5-1,1V27H9.6v-6.2c0-0.6-0.5-1-1-1H4.4
			c-0.3,0-0.7,0.2-0.9,0.5l-2.1,3.1c-0.1,0.2-0.2,0.4-0.2,0.6V27c0,0.2,0.1,0.4,0.2,0.6l1.9,2.8v8.9c0,0.6,0.5,1,1,1h4.1
			c0.6,0,1-0.5,1-1v-6.2h2.1v6.2c0,0.6,0.5,1,1,1h5.6l3.8,5.7c0.2,0.3,0.5,0.5,0.9,0.5h29.8c0.6,0,1-0.5,1-1v-9.2h2.1v7.2
			c0,0.6,0.5,1,1,1h3.1c0.3,0,0.5-0.1,0.7-0.3l2.1-2.1c0.2-0.2,0.3-0.5,0.3-0.7V24.9C63,24.6,62.9,24.4,62.7,24.2z M7.5,28v10.3H5.5
			V30c0-0.2-0.1-0.4-0.2-0.6l-1.9-2.8v-2.5L5,21.8h2.5V28z M11.6,31.1H9.6V29h2.1V31.1z M22.9,9.5V7.4h18.5v2.1H22.9z M33.2,11.6
			v2.1h-2.1v-2.1H33.2z M47.6,44.4H23.5l-3.8-5.7c-0.2-0.3-0.5-0.5-0.9-0.5h-5.1V21.8h5.1c0.3,0,0.7-0.2,0.9-0.5l3.8-5.7h17.4
			l3.8,5.7c0.2,0.3,0.5,0.5,0.9,0.5h2.1V44.4z M51.7,29v15.4h-2.1V21.8h2.1V29z M55.8,34.1h-2.1V30h2.1V34.1z M60.9,40.9l-1.5,1.5
			h-1.6V23.9h1.6l1.5,1.5V40.9z"/>
	</g>
</g>
<g>
	<g>
		<rect x="15.7" y="28" class="st0" width="2.1" height="8.2"/>
	</g>
</g>
<g>
	<g>
		<rect x="15.7" y="23.9" class="st0" width="2.1" height="2.1"/>
	</g>
</g>
</svg>
