<svg xmlns="http://www.w3.org/2000/svg" width="22.891" height="28.212" viewBox="0 0 22.891 28.212">
  <path style="fill:#B9BFC1" id="documento" d="M70.92,7.953,63.225.258A.882.882,0,0,0,62.6,0H51.109a2.826,2.826,0,0,0-2.822,2.822V25.39a2.826,2.826,0,0,0,2.822,2.822H68.355a2.826,2.826,0,0,0,2.822-2.822V8.577a.881.881,0,0,0-.258-.623ZM63.483,3.01,68.168,7.7H63.483Zm4.873,23.439H51.109A1.06,1.06,0,0,1,50.05,25.39V2.822a1.06,1.06,0,0,1,1.059-1.059H61.72V8.577a.882.882,0,0,0,.882.882h6.813V25.39a1.06,1.06,0,0,1-1.059,1.059Z" transform="translate(-48.287)"/>
</svg>
