<?xml version="1.0" encoding="utf-8"?>
<!-- Generator: Adobe Illustrator 26.2.1, SVG Export Plug-In . SVG Version: 6.00 Build 0)  -->
<svg version="1.1" id="Layer_1" xmlns="http://www.w3.org/2000/svg" xmlns:xlink="http://www.w3.org/1999/xlink" x="0px" y="0px"
	 viewBox="0 0 212 42.9" style="enable-background:new 0 0 212 42.9;" xml:space="preserve">
<style type="text/css">
	.st0{fill:#070808;}
</style>
<g>
	<path class="st0" d="M26.7,9.8c5,0,9.9,0,14.9,0c2.2,0,4,0.6,5.6,2.1c1.7,1.5,3.4,3,5.1,4.5c0.9,0.8,1,1.5,0.1,2.4
		c-2.3,2.3-4.7,4.6-7.1,6.9c-0.8,0.8-1.8,1.2-2.9,1.5c-0.3,0.1-0.6,0.3-0.7,0.5c-0.1,0.1,0.2,0.6,0.5,0.7c1.5,1.1,3,2.1,4.5,3.2
		c0.8,0.6,1.2,0.5,1.9-0.1c5.1-4.9,10.2-9.8,15.3-14.6c1.7-1.6,3.5-3.2,5.3-4.6c1.4-1.1,3.1-1.5,4.8-1.7c7.3-0.6,14.6-0.2,21.9-0.3
		c1.1,0,2.2,0,3.3,0c0.8,0,1,0.2,0.8,1c-0.7,2.9-1.3,5.9-2,8.8c-1,4.4-2.1,8.9-3.2,13.3c-0.1,0.4-0.2,0.8-0.3,1.2
		c-0.1,0.5-0.4,0.8-1,0.8c-3,0-5.9,0-8.9,0c-0.6,0-0.8-0.3-0.6-0.9c0.4-1.5,0.8-3.1,1.2-4.6c0.1-0.5,0.3-1,0.4-1.6
		c0.2-0.8-0.1-1.2-0.9-1.2c-1.3,0-2.6,0-3.9,0c-3,0-5.9,0-8.9,0c-0.2,0-0.5-0.2-0.7-0.3c0.1-0.2,0.2-0.5,0.3-0.7c1-1,2-1.9,3.1-2.9
		c0.4-0.4,0.9-0.6,1.5-0.6c3.2,0,6.4-0.1,9.6-0.1c1.2,0,1.4-0.2,1.7-1.4c0.5-1.8,0.9-3.7,1.4-5.5c0.2-0.6-0.1-1-0.7-1
		c-2.9,0.1-5.8,0.1-8.7,0.3c-1.7,0.1-3,1.1-4.2,2.2C70.1,22,65,26.8,59.9,31.6c-1,1-2,2-3.1,2.9c-0.6,0.5-1.3,0.8-2.1,0.8
		c-5.2,0-10.3,0-15.5,0c-0.6,0-1.3-0.2-1.7-0.6c-3.7-2.9-7.4-5.9-11.1-8.9c-1-0.8-1.9-1.5-2.8-2.3c-0.2-0.2-0.3-0.5-0.4-0.8
		c0.3-0.1,0.5-0.4,0.8-0.4c3.4,0,6.7-0.1,10.1,0c1.7,0,3.2-0.4,4.4-1.7c0.8-0.8,1.7-1.5,2.5-2.3c0.6-0.6,0.6-1,0-1.5
		c-0.7-0.7-1.4-1.4-2.3-1.9c-0.6-0.4-1.5-0.6-2.2-0.6c-5.4-0.1-10.8,0-16.3,0c-0.6,0-0.9,0.2-1.1,0.8c-0.5,2-0.9,3.9-1.4,5.9
		c-0.3,1.3-0.6,2.7-1,4c-0.6,2.8-1.3,5.6-1.9,8.4c-0.1,0.5-0.2,1-0.4,1.5c-0.1,0.4-0.5,0.6-0.9,0.6c-2.9,0-5.9,0-8.8,0
		c-0.7,0-0.9-0.4-0.7-1.1c0.3-1.3,0.6-2.5,0.9-3.8c0.7-2.8,1.3-5.7,2-8.5c0.4-1.7,0.8-3.4,1.2-5.1c0.5-2.1,1-4.2,1.5-6.3
		C10,9.8,10,9.8,10.9,9.8c4.9,0,9.7,0,14.6,0C25.9,9.8,26.3,9.8,26.7,9.8C26.7,9.8,26.7,9.8,26.7,9.8z"/>
	<path class="st0" d="M183.5,35.4c-6.5,0-12.9,0-19.4,0c-1,0-1.1-0.2-0.9-1.2c0.7-2.9,1.4-5.8,2-8.8c0.4-1.8,0.9-3.5,1.3-5.3
		c0.7-2.8,1.3-5.7,2-8.5c0.3-1.1,0.3-1.4,1.6-1.4c12.4,0,24.9,0,37.3,0c1,0,1.1,0.2,0.9,1.2c-0.2,0.7-0.3,1.4-0.5,2.1
		c-0.2,1-0.4,1.2-1.4,1.2c-1.7,0-3.4,0-5.1,0c-7.3,0-14.6,0-21.9,0c-1.2,0-1.4,0.2-1.7,1.3c-0.3,1.1-0.5,2.3-0.8,3.4
		c-0.2,0.7,0,1,0.7,1c0.2,0,0.4,0,0.7,0c7.9,0,15.9,0,23.8,0c0.2,0,0.5,0,0.7,0c0.4,0.1,0.7,0.3,0.6,0.7c-0.2,1-0.4,2-0.8,3
		c-0.1,0.3-0.5,0.5-0.8,0.6c-0.2,0.1-0.4,0-0.7,0c-8.1,0-16.1,0-24.2,0c-1.2,0-1.5,0.2-1.7,1.4c-0.2,1-0.5,2-0.7,3
		c-0.3,1.1,0,1.4,1.1,1.4c9.4,0,18.8,0,28.2,0c0.9,0,1.1,0.3,0.9,1.1c-0.3,0.8-0.4,1.7-0.6,2.6c-0.2,0.8-0.5,1-1.3,1
		C196.5,35.4,190,35.4,183.5,35.4z"/>
	<path class="st0" d="M137.5,35.4c-6.2,0-12.3,0-18.5,0c-0.2,0-0.4,0-0.6,0c-0.5-0.2-0.5-0.7-0.1-1c1.2-0.9,2.4-1.9,3.6-2.8
		c4.8-3.7,9.6-7.3,14.4-11c2-1.5,4-3,6-4.5c0.1-0.1,0.2-0.2,0.4-0.3c0.4-0.4,0.3-0.8-0.3-0.9c-0.3-0.1-0.6,0-0.8,0
		c-5.8,0-11.5,0-17.3,0c-1.3,0-1.4-0.1-1-1.4c0.2-0.8,0.4-1.5,0.5-2.3c0.1-0.6,0.5-0.8,1.1-0.8c12.2,0,24.4,0,36.6,0
		c0.2,0,0.7,0.2,0.7,0.4c0,0.2-0.1,0.6-0.3,0.8c-2.1,1.7-4.3,3.3-6.4,5c-5,3.8-10,7.6-14.9,11.4c-0.7,0.5-1.5,1.1-2.1,1.6
		c-0.2,0.2-0.5,0.6-0.5,0.9c0.1,0.4,0.5,0.5,0.9,0.5c6.1,0,12.2,0,18.3,0c1,0,1.2,0.2,0.9,1.2c-0.2,0.8-0.4,1.6-0.6,2.5
		c-0.2,0.8-0.4,1-1.3,1C149.8,35.4,143.7,35.4,137.5,35.4z"/>
	<path class="st0" d="M106.3,35.4c-1.4,0-2.8,0-4.2,0c-0.7,0-0.9-0.3-0.7-0.9c0.7-3,1.4-6,2.1-9.1c0.8-3.3,1.5-6.5,2.3-9.8
		c0.4-1.5,0.7-3,1.1-4.6c0.1-0.5,0.5-0.8,1.1-0.8c2.9,0,5.7,0,8.6,0c0.6,0,0.8,0.2,0.7,0.9c-0.5,2.2-1,4.4-1.5,6.7
		c-0.5,1.9-0.9,3.9-1.4,5.8c-0.8,3.3-1.6,6.5-2.3,9.8c-0.1,0.4-0.1,0.7-0.2,1.1c-0.2,0.6-0.5,0.9-1.2,0.9
		C109.1,35.4,107.7,35.4,106.3,35.4z"/>
</g>
</svg>
