<?xml version="1.0" encoding="utf-8"?>
<!-- Generator: Adobe Illustrator 26.2.1, SVG Export Plug-In . SVG Version: 6.00 Build 0)  -->
<svg version="1.1" id="Capa_1" xmlns="http://www.w3.org/2000/svg" xmlns:xlink="http://www.w3.org/1999/xlink" x="0px" y="0px"
	 viewBox="0 0 128 128" style="enable-background:new 0 0 128 128;" xml:space="preserve">
<style type="text/css">
	.st0{fill:#FFFFFF;}
</style>
<g>
	<g>
		<g>
			<path class="st0" d="M118.9,61.9l2.2-30.9c0.4-5.2-1.3-10.4-4.6-14.5l8.5-9.2c1.1-1.2,1-3-0.2-4.1c-1.2-1.1-3-1-4.1,0.2l-8.5,9.2
				c-4.3-3-9.6-4.2-14.8-3.3l-30.6,4.9c-2.7,0.4-5.1,1.8-7,3.8L10.5,71.8C6,76.6,6.4,84.2,11.3,88.6c0,0,0,0,0,0l38.2,35
				c4.8,4.5,12.4,4.2,16.9-0.6c0,0,0,0,0,0l49.3-53.8C117.6,67.2,118.7,64.6,118.9,61.9z M95.1,35.5c3.5,3.2,3.7,8.5,0.5,12
				s-8.5,3.7-12,0.5c-3.5-3.2-3.7-8.5-0.5-12C86.3,32.6,91.7,32.3,95.1,35.5z M62.2,119.1c-2.3,2.5-6.2,2.6-8.7,0.3l-38.2-35
				c-2.5-2.3-2.8-6.2-0.5-8.7l49.3-53.8c0.9-1,2.2-1.7,3.6-1.9L98.3,15c3.4-0.5,6.9,0.1,9.9,1.9L96.7,29.5c-6.8-4.1-15.6-1.8-19.7,5
				c-4.1,6.8-1.8,15.6,5,19.7c6.8,4.1,15.6,1.8,19.7-5c2.9-4.9,2.7-11.1-0.7-15.7l11.5-12.5c0.7,1,1.3,2.1,1.8,3.2
				c0.8,2.1,1.2,4.3,1,6.5l-2.2,30.9c-0.1,1.4-0.7,2.7-1.6,3.8L62.2,119.1L62.2,119.1z"/>
		</g>
	</g>
	<g>
		<g>
			<path class="st0" d="M59.7,88c1.8-3.9,0.9-8.5-2.3-11.3c-1.6-1.5-1.7-3.9-0.2-5.5s3.9-1.7,5.5-0.2c1.6,1.5,1.7,3.9,0.2,5.5
				c-1.1,1.2-1,3,0.2,4.1s3,1,4.1-0.2c2.9-3.1,3.4-7.8,1.3-11.5l0.9-0.9c1.1-1.2,1-3-0.2-4.1c-1.2-1.1-3-1-4.1,0.2l-0.9,0.9
				c-4.9-2.3-10.7-0.2-13,4.7c-1.8,3.9-0.9,8.5,2.3,11.3c1.6,1.5,1.7,3.9,0.2,5.5s-3.9,1.7-5.5,0.2c-1.6-1.5-1.7-3.9-0.2-5.5
				c1.1-1.2,1-3-0.2-4.1s-3-1-4.1,0.2c-2.9,3.1-3.4,7.8-1.3,11.5l-1,1.1c-1.1,1.2-1,3,0.2,4.1c1.2,1.1,3,1,4.1-0.2l1-1.1
				C51.6,95,57.5,92.8,59.7,88z"/>
		</g>
	</g>
</g>
</svg>
