<svg width="19" height="28" viewBox="0 0 19 28" fill="none" xmlns="http://www.w3.org/2000/svg">
<path d="M9.50036 1.79999e-06C8.25254 -0.000778545 7.01681 0.252174 5.86384 0.744396C4.71086 1.23662 3.66325 1.95845 2.7809 2.86863C1.89856 3.7788 1.1988 4.85946 0.721632 6.0488C0.244463 7.23815 -0.000754738 8.51286 1.74495e-06 9.80004C1.74495e-06 17.1501 9.50036 28 9.50036 28C9.50036 28 19 17.1501 19 9.80004C19.0008 8.51292 18.7556 7.23827 18.2784 6.04898C17.8013 4.85968 17.1016 3.77905 16.2193 2.86889C15.3371 1.95872 14.2896 1.23687 13.1367 0.744609C11.9838 0.252344 10.7481 -0.000680998 9.50036 1.79999e-06ZM9.50036 13.2999C8.82931 13.2999 8.17333 13.0947 7.61538 12.7101C7.05742 12.3255 6.62254 11.7789 6.36574 11.1394C6.10895 10.4999 6.04176 9.79616 6.17267 9.11724C6.30359 8.43832 6.62673 7.8147 7.10123 7.32523C7.57573 6.83576 8.18029 6.50243 8.83844 6.36738C9.4966 6.23234 10.1788 6.30165 10.7988 6.56655C11.4187 6.83145 11.9486 7.28004 12.3214 7.8556C12.6943 8.43115 12.8932 9.10782 12.8932 9.80004C12.8929 10.7282 12.5353 11.6181 11.8991 12.2744C11.2629 12.9307 10.4001 13.2996 9.50036 13.2999Z" fill="#E50021"/>
</svg>
