<?xml version="1.0" encoding="utf-8"?>
<!-- Generator: Adobe Illustrator 26.2.1, SVG Export Plug-In . SVG Version: 6.00 Build 0)  -->
<svg version="1.1" id="Capa_1" xmlns="http://www.w3.org/2000/svg" xmlns:xlink="http://www.w3.org/1999/xlink" x="0px" y="0px"
	 viewBox="0 0 130.7 90.9" style="enable-background:new 0 0 130.7 90.9;" xml:space="preserve">
<g id="a">
	<polygon points="127.2,28.7 20.1,88.3 18.7,85.8 125.8,26.2 	"/>
	<rect x="18.7" y="85.7" width="27.4" height="2.8"/>
</g>
<g id="b">
	<g>
		<rect x="41.6" y="49.8" transform="matrix(0.8771 -0.4802 0.4802 0.8771 -16.7688 36.91)" width="44.2" height="2.8"/>
		<path d="M97.3,44.9c-5.3,2.9-11.9,0.9-14.8-4.3c-2.9-5.3-0.9-11.9,4.3-14.8c5.3-2.9,11.9-0.9,14.8,4.3
			C104.5,35.4,102.6,42.1,97.3,44.9z M88.2,28.3c-3.9,2.1-5.3,7-3.2,10.9c2.1,3.9,7,5.3,10.9,3.2c3.9-2.1,5.3-7,3.2-10.9
			C97,27.6,92.1,26.2,88.2,28.3z"/>
		<path d="M94.4,39.7c-2.5,1.3-5.6,0.4-6.9-2c-1.3-2.5-0.4-5.6,2-6.9s5.6-0.4,6.9,2C97.8,35.2,96.9,38.3,94.4,39.7z M90.9,33.2
			c-1.1,0.6-1.5,2-0.9,3.1c0.6,1.1,2,1.5,3.1,0.9c1.1-0.6,1.5-2,0.9-3.1C93.4,33,92,32.6,90.9,33.2L90.9,33.2z"/>
		<g>
			<path d="M41.1,75.7c-5.3,2.9-11.9,0.9-14.8-4.3s-0.9-11.9,4.3-14.8s11.9-0.9,14.8,4.3S46.4,72.8,41.1,75.7z M32,59.1
				c-3.9,2.1-5.3,7-3.2,10.9c2.1,3.9,7,5.3,10.9,3.2c3.9-2.1,5.3-7,3.2-10.9S35.9,56.9,32,59.1z"/>
			<path d="M38.3,70.4c-2.5,1.3-5.6,0.4-6.9-2s-0.4-5.6,2-6.9c2.5-1.3,5.6-0.4,6.9,2C41.6,66,40.7,69.1,38.3,70.4z M34.7,64
				c-1.1,0.6-1.5,2-0.9,3.1c0.6,1.1,2,1.5,3.1,0.9c1.1-0.6,1.5-2,0.9-3.1C37.2,63.8,35.9,63.4,34.7,64L34.7,64z"/>
		</g>
		<path d="M28.3,71.9l-5.8,3.2c-2.6,1.4-5.8,0.5-7.2-2.1s-0.5-5.8,2.1-7.2l4.4-2.4l1.4,2.5l-4.4,2.4c-1.2,0.7-1.6,2.2-1,3.3
			c0.7,1.2,2.2,1.6,3.3,1l5.8-3.2C26.9,69.4,28.3,71.9,28.3,71.9z"/>
		<polygon points="78.3,35.7 44.7,54.1 34.3,50 13.5,61.4 12.2,58.9 34.1,46.9 44.5,51 76.9,33.2 		"/>
		<path d="M108.5,28.3l-6.5,3.6l-1.4-2.5l6.5-3.6c2.4-1.3,3.3-4.3,2-6.8l-0.1-0.2l-8.3,4.5l-1.4-2.5l8.3-4.5
			c1.4-0.8,3.1-0.2,3.9,1.1l0.1,0.2C113.7,21.5,112.3,26.3,108.5,28.3L108.5,28.3z"/>
		<path d="M18.5,67.2l-2.6,1.1L2.6,36.6c-1.2-2.8,0-6.1,2.7-7.5L49.5,4.8c1.7-1,3.8-1,5.6-0.1l16.5,9l20.7-7c4.1-1.4,8.7,0,11.3,3.5
			l0.1,0.1l4.7,7.2l-2.4,1.5l-4.7-7.1c-1.9-2.5-5.2-3.5-8.1-2.5l-21.9,7.4L53.8,7.2c-0.9-0.5-2-0.5-2.9,0.1L6.6,31.6
			c-1.4,0.8-2,2.5-1.4,4L18.5,67.2L18.5,67.2z"/>
		<path d="M52.4,14.2L49.1,16l-1.4-2.5l3.3-1.8L52.4,14.2z M45.7,17.8l-3.3,1.8l-1.4-2.5l3.3-1.8L45.7,17.8z"/>
		<path d="M72.1,16.4L22.9,43.3c-0.8,0.4-1.8,0.5-2.7,0.2c-0.9-0.3-1.6-1-2-1.8l-3-7c-0.7-1.6-0.1-3.4,1.4-4.2l24.4-13.3l1.4,2.5
			L18.1,33c-0.2,0.1-0.3,0.4-0.2,0.6l3,7c0.1,0.2,0.2,0.2,0.3,0.3c0.1,0,0.2,0.1,0.4,0l49.2-26.9L72.1,16.4z"/>
		<rect x="38.5" y="20.2" transform="matrix(0.8771 -0.4802 0.4802 0.8771 -7.5309 22.3383)" width="2.8" height="11.4"/>
		<rect x="46" y="34" transform="matrix(0.8771 -0.4802 0.4802 0.8771 -13.2105 27.6444)" width="2.8" height="11.4"/>
		<path d="M104.4,14.2L97.5,18c-2.4,1.3-5.5,0.4-6.8-2l-0.9-1.6l2.5-1.4l0.9,1.6c0.6,1.1,1.9,1.5,3,0.9l6.9-3.8
			C103,11.7,104.4,14.2,104.4,14.2z"/>
	</g>
</g>
</svg>
