<?xml version="1.0" encoding="utf-8"?>
<!-- Generator: Adobe Illustrator 26.2.1, SVG Export Plug-In . SVG Version: 6.00 Build 0)  -->
<svg version="1.1" id="Capa_1" xmlns="http://www.w3.org/2000/svg" xmlns:xlink="http://www.w3.org/1999/xlink" x="0px" y="0px"
	 viewBox="0 0 107.7 105.3" style="enable-background:new 0 0 107.7 105.3;" xml:space="preserve">
<g id="Capa_4_00000014601892820624859860000009022216980561401752_">
	<path d="M40.1,3.7c-3.4,0-6.4,2.1-7.7,5.2l-4.7,11.7c-0.5-0.2-1.1-0.3-1.7-0.3H24c-2.9,0-5.4,2.1-5.8,4.9l-0.7,4.5h5.4l-0.3,0.5
		c-1.6,2.5-2.6,5.4-2.6,8.5V64c0,2,1.6,3.5,3.5,3.5h5.9c2,0,3.5-1.6,3.5-3.5v-2.4h52V64c0,2,1.6,3.5,3.5,3.5h5.9
		c2,0,3.5-1.6,3.5-3.5V38.8c0-3-0.9-6-2.6-8.5L95,29.8h5.4l-0.7-4.5c-0.5-2.8-2.9-4.9-5.8-4.9h-2.1c-0.6,0-1.2,0.1-1.7,0.3L85.5,9
		c-1.2-3.1-4.3-5.2-7.7-5.2L40.1,3.7L40.1,3.7z M40.1,6.1h37.7c2.4,0,4.6,1.4,5.5,3.7l5.8,14.5l1.2-1.1c0.4-0.4,1-0.6,1.6-0.6h2.1
		c1.8,0,3.2,1.2,3.5,2.9l0.3,1.8h-7.1l1.2,1.8l1.6,2.4c1.4,2.2,2.2,4.7,2.2,7.2V64c0,0.7-0.5,1.2-1.2,1.2h-5.9
		c-0.7,0-1.2-0.5-1.2-1.2v-4.7H30.6V64c0,0.7-0.5,1.2-1.2,1.2h-5.9c-0.7,0-1.2-0.5-1.2-1.2V38.8c0-2.6,0.7-5,2.2-7.2l2.8-4.2h-7.1
		l0.3-1.8c0.3-1.7,1.8-2.9,3.5-2.9h2.1c0.6,0,1.1,0.2,1.6,0.6l1.2,1.1l5.8-14.5C35.6,7.6,37.7,6.1,40.1,6.1z M30.6,27.4
		c-0.7,0-1.2,0.5-1.2,1.2s0.5,1.2,1.2,1.2s1.2-0.5,1.2-1.2C31.8,27.9,31.2,27.4,30.6,27.4z M35.4,27.4c-0.7,0-1.2,0.5-1.2,1.2
		s0.5,1.2,1.2,1.2s1.2-0.5,1.2-1.2C36.5,27.9,36,27.4,35.4,27.4z M40.1,27.4c-0.7,0-1.2,0.5-1.2,1.2s0.5,1.2,1.2,1.2
		s1.2-0.5,1.2-1.2C41.3,27.9,40.7,27.4,40.1,27.4z M44.8,27.4c-0.7,0-1.2,0.5-1.2,1.2s0.5,1.2,1.2,1.2s1.2-0.5,1.2-1.2
		C46,27.9,45.5,27.4,44.8,27.4z M49.5,27.4c-0.7,0-1.2,0.5-1.2,1.2s0.5,1.2,1.2,1.2s1.2-0.5,1.2-1.2C50.7,27.9,50.2,27.4,49.5,27.4z
		 M54.2,27.4c-0.7,0-1.2,0.5-1.2,1.2s0.5,1.2,1.2,1.2c0.7,0,1.2-0.5,1.2-1.2C55.4,27.9,54.9,27.4,54.2,27.4z M59,27.4
		c-0.7,0-1.2,0.5-1.2,1.2s0.5,1.2,1.2,1.2s1.2-0.5,1.2-1.2C60.2,27.9,59.7,27.4,59,27.4z M63.7,27.4c-0.7,0-1.2,0.5-1.2,1.2
		s0.5,1.2,1.2,1.2s1.2-0.5,1.2-1.2C64.9,27.9,64.4,27.4,63.7,27.4z M68.4,27.4c-0.7,0-1.2,0.5-1.2,1.2s0.5,1.2,1.2,1.2
		c0.7,0,1.2-0.5,1.2-1.2C69.6,27.9,69.1,27.4,68.4,27.4z M73.2,27.4c-0.7,0-1.2,0.5-1.2,1.2s0.5,1.2,1.2,1.2s1.2-0.5,1.2-1.2
		C74.3,27.9,73.8,27.4,73.2,27.4z M77.9,27.4c-0.7,0-1.2,0.5-1.2,1.2s0.5,1.2,1.2,1.2s1.2-0.5,1.2-1.2
		C79.1,27.9,78.5,27.4,77.9,27.4z M82.7,27.4c-0.7,0-1.2,0.5-1.2,1.2s0.5,1.2,1.2,1.2s1.2-0.5,1.2-1.2
		C83.8,27.9,83.3,27.4,82.7,27.4z M87.4,27.4c-0.7,0-1.2,0.5-1.2,1.2s0.5,1.2,1.2,1.2s1.2-0.5,1.2-1.2C88.6,27.9,88,27.4,87.4,27.4z
		 M32.9,33.3c-3.3,0-5.9,2.7-5.9,5.9c0,3.2,2.7,5.9,5.9,5.9c3.3,0,5.9-2.7,5.9-5.9C38.8,36,36.2,33.3,32.9,33.3z M85,33.3
		c-3.3,0-5.9,2.7-5.9,5.9c0,3.2,2.7,5.9,5.9,5.9c3.3,0,5.9-2.7,5.9-5.9C90.9,36,88.2,33.3,85,33.3z M32.9,35.7c2,0,3.5,1.6,3.5,3.5
		c0,2-1.6,3.5-3.5,3.5s-3.5-1.6-3.5-3.5C29.4,37.3,31,35.7,32.9,35.7z M43.6,35.7v2.4h30.7v-2.4H43.6z M85,35.7c2,0,3.5,1.6,3.5,3.5
		c0,2-1.6,3.5-3.5,3.5s-3.5-1.6-3.5-3.5C81.5,37.3,83.1,35.7,85,35.7z M46,41.6V44h26v-2.4H46z M25.9,52.2c-0.7,0-1.2,0.5-1.2,1.2
		s0.5,1.2,1.2,1.2c0.7,0,1.2-0.5,1.2-1.2S26.5,52.2,25.9,52.2z M30.6,52.2c-0.7,0-1.2,0.5-1.2,1.2s0.5,1.2,1.2,1.2s1.2-0.5,1.2-1.2
		C31.8,52.7,31.2,52.2,30.6,52.2z M35.4,52.2c-0.7,0-1.2,0.5-1.2,1.2s0.5,1.2,1.2,1.2s1.2-0.5,1.2-1.2C36.5,52.7,36,52.2,35.4,52.2z
		 M40.1,52.2c-0.7,0-1.2,0.5-1.2,1.2s0.5,1.2,1.2,1.2s1.2-0.5,1.2-1.2S40.7,52.2,40.1,52.2z M44.8,52.2c-0.7,0-1.2,0.5-1.2,1.2
		s0.5,1.2,1.2,1.2s1.2-0.5,1.2-1.2C46,52.7,45.5,52.2,44.8,52.2z M49.5,52.2c-0.7,0-1.2,0.5-1.2,1.2s0.5,1.2,1.2,1.2
		s1.2-0.5,1.2-1.2S50.2,52.2,49.5,52.2z M54.2,52.2c-0.7,0-1.2,0.5-1.2,1.2s0.5,1.2,1.2,1.2c0.7,0,1.2-0.5,1.2-1.2
		S54.9,52.2,54.2,52.2z M59,52.2c-0.7,0-1.2,0.5-1.2,1.2s0.5,1.2,1.2,1.2s1.2-0.5,1.2-1.2S59.7,52.2,59,52.2z M63.7,52.2
		c-0.7,0-1.2,0.5-1.2,1.2s0.5,1.2,1.2,1.2s1.2-0.5,1.2-1.2S64.4,52.2,63.7,52.2z M68.4,52.2c-0.7,0-1.2,0.5-1.2,1.2s0.5,1.2,1.2,1.2
		c0.7,0,1.2-0.5,1.2-1.2S69.1,52.2,68.4,52.2z M73.2,52.2c-0.7,0-1.2,0.5-1.2,1.2s0.5,1.2,1.2,1.2s1.2-0.5,1.2-1.2
		S73.8,52.2,73.2,52.2z M77.9,52.2c-0.7,0-1.2,0.5-1.2,1.2s0.5,1.2,1.2,1.2s1.2-0.5,1.2-1.2S78.5,52.2,77.9,52.2z M82.7,52.2
		c-0.7,0-1.2,0.5-1.2,1.2s0.5,1.2,1.2,1.2s1.2-0.5,1.2-1.2C83.8,52.7,83.3,52.2,82.7,52.2z M87.4,52.2c-0.7,0-1.2,0.5-1.2,1.2
		s0.5,1.2,1.2,1.2s1.2-0.5,1.2-1.2S88,52.2,87.4,52.2z M92.1,52.2c-0.7,0-1.2,0.5-1.2,1.2s0.5,1.2,1.2,1.2c0.7,0,1.2-0.5,1.2-1.2
		S92.7,52.2,92.1,52.2z"/>
</g>
<g id="Capa_3_00000100366817872653304940000016141748805094080648_">
	<path d="M27,66c0,0,14,10.6-14.9,19.9C-3.6,91,8,101.2,8,101.2l7.5-2.5c0,0-8-4.3,1.2-8.1c27.9-11.5,19.1-21.2,16.2-25.3L27,66z"/>
</g>
<g id="Capa_2_00000008146590989931948870000000219722763237301894_">
	<path d="M91.8,66c0,0,14,10.6-14.9,19.9c-15.7,5-4.1,15.2-4.1,15.2l7.5-2.5c0,0-8-4.3,1.2-8.1c27.9-11.5,19.1-21.2,16.2-25.3
		L91.8,66z"/>
</g>
</svg>
