<?xml version="1.0" encoding="utf-8"?>
<!-- Generator: Adobe Illustrator 26.2.1, SVG Export Plug-In . SVG Version: 6.00 Build 0)  -->
<svg version="1.1" xmlns="http://www.w3.org/2000/svg" xmlns:xlink="http://www.w3.org/1999/xlink" x="0px" y="0px"
	 viewBox="0 0 112 113" style="enable-background:new 0 0 112 113;" xml:space="preserve">
<style type="text/css">
	.st0{display:none;}
	.st1{display:inline;}
	.st2{fill:none;stroke:#000000;stroke-width:3;stroke-miterlimit:10;}
	.st3{fill:none;stroke:#000000;stroke-width:2;stroke-miterlimit:10;}
</style>
<g id="Capa_1">
	<g id="llanta_00000132789819994523925900000001984088176855082928_" class="st0">
		<g class="st1">
			<g>
				<path d="M42.5,18.2c0.4-0.2,0.8-0.4,1.2-0.6c0.2-0.1,0.4-0.2,0.6-0.2c0.1-0.1,0.2-0.1,0.3-0.1c0.4-0.2-0.4,0.2-0.1,0
					c0.8-0.3,1.7-0.7,2.5-0.9c1.7-0.6,3.4-1.1,5.1-1.4c0.9-0.2,1.7-0.4,2.6-0.5c0.2-0.1,0.4-0.1,0.6-0.1c0.1,0,0.2,0,0.3-0.1
					c0,0-0.6,0.1-0.2,0c0.4-0.1,0.9-0.1,1.4-0.1c1.7-0.2,3.4-0.2,5.1-0.2s3.4,0.1,5.1,0.4c0.6,0.1-0.5-0.1,0.1,0
					c0.2,0,0.4,0.1,0.6,0.1c0.4,0.1,0.9,0.1,1.3,0.2c0.8,0.2,1.7,0.3,2.5,0.6c1.7,0.4,3.3,0.9,4.9,1.5c0.4,0.1,0.7,0.3,1.1,0.4
					c0.2,0.1,0.4,0.2,0.6,0.2c0.3,0.1-0.2-0.1-0.2-0.1c0.1,0.1,0.2,0.1,0.4,0.2c0.8,0.3,1.5,0.7,2.3,1.1c1.5,0.7,3,1.6,4.4,2.5
					c0.7,0.5,1.4,0.9,2.1,1.4c0.2,0.1,0.3,0.2,0.5,0.4c0.2,0.2,0.4,0.4,0.1,0.1c0.4,0.3,0.7,0.6,1.1,0.9c1.3,1.1,2.6,2.3,3.8,3.5
					c0.6,0.6,1.2,1.3,1.7,1.9c0.2,0.3,0.6,0.6,0.8,1c0.1,0.2,0.2,0.3,0.4,0.5c0.1,0.1,0.2,0.3,0.1,0.1c-0.2-0.3,0.1,0.1,0.1,0.1
					c2.2,2.8,4,6,5.4,9.3c0.1,0.1,0.3,0.7,0.2,0.4c-0.1-0.3,0.1,0.2,0.1,0.4c0.2,0.4,0.4,0.9,0.5,1.3c0.3,0.9,0.6,1.7,0.9,2.5
					c0.5,1.7,0.9,3.4,1.2,5.1c0.1,0.4,0.1,0.8,0.2,1.2c0,0.1,0.1,0.7,0.1,0.4c-0.1-0.4,0.1,0.3,0.1,0.4c0.1,0.9,0.2,1.7,0.2,2.6
					c0.1,1.7,0.1,3.4,0,5.1c-0.1,0.9-0.1,1.7-0.2,2.5c0,0.2-0.1,0.4-0.1,0.6c-0.1,0.3-0.1,0.6,0,0.1c0,0.4-0.1,0.9-0.2,1.3
					c-0.3,1.7-0.7,3.3-1.1,4.9c-0.5,1.7-1.1,3.3-1.7,4.9c-0.2,0.5,0.2-0.4-0.1,0.1c-0.1,0.2-0.2,0.4-0.2,0.6
					c-0.2,0.4-0.4,0.8-0.6,1.2c-0.4,0.7-0.7,1.5-1.2,2.3c-0.8,1.5-1.7,3-2.7,4.3c-0.2,0.3-0.5,0.7-0.7,1c-0.1,0.2-0.2,0.3-0.4,0.5
					c0.3-0.4,0,0-0.1,0.2c-0.6,0.7-1.1,1.3-1.7,2c-1.2,1.3-2.4,2.5-3.6,3.6c-0.7,0.6-1.3,1.1-2,1.7c-0.1,0.1-0.2,0.1-0.2,0.2
					c0,0,0.4-0.3,0.1-0.1c-0.2,0.1-0.3,0.2-0.5,0.4c-0.4,0.2-0.7,0.6-1.1,0.8c-1.5,1.1-3,2-4.6,2.8c-0.8,0.4-1.6,0.9-2.5,1.2
					c-0.4,0.2-0.8,0.4-1.2,0.6c-0.3,0.1,0.1-0.1,0.2-0.1c-0.1,0.1-0.2,0.1-0.3,0.1c-0.2,0.1-0.5,0.2-0.7,0.3
					c-1.7,0.6-3.3,1.2-5.1,1.6c-0.9,0.2-1.7,0.4-2.5,0.6c-0.4,0.1-0.8,0.2-1.2,0.2c-0.4,0.1-1,0.1-1.4,0.2c0,0,0.6-0.1,0.2,0
					c-0.1,0-0.2,0-0.3,0.1c-0.2,0-0.4,0.1-0.6,0.1c-0.4,0.1-0.9,0.1-1.4,0.1c-0.9,0.1-1.7,0.1-2.6,0.1c-1.7,0.1-3.4,0-5.1-0.2
					c-0.4-0.1-0.8-0.1-1.2-0.1c-0.2,0-0.4-0.1-0.6-0.1c0.6,0.1,0.1,0-0.2,0c-0.9-0.1-1.7-0.2-2.5-0.4c-1.7-0.4-3.3-0.8-4.9-1.3
					c-0.9-0.2-1.7-0.6-2.5-0.9c-0.2-0.1-0.4-0.1-0.6-0.2c-0.2-0.1-0.6-0.2-0.1,0c-0.4-0.2-0.8-0.4-1.2-0.6c-1.5-0.7-3-1.5-4.5-2.4
					c-1.5-0.9-2.8-1.9-4.2-2.8c-0.2-0.2,0.1,0.1,0.2,0.1c-0.1-0.1-0.2-0.1-0.2-0.2c-0.2-0.1-0.3-0.2-0.5-0.4
					c-0.4-0.3-0.7-0.6-1.1-0.9c-0.7-0.6-1.3-1.2-1.9-1.7c-1.2-1.2-2.4-2.5-3.5-3.8c-0.1-0.2-0.2-0.3-0.4-0.5
					c-0.1-0.1-0.4-0.6-0.2-0.3c0.2,0.3-0.2-0.2-0.2-0.3c-0.1-0.2-0.3-0.4-0.4-0.6c-0.5-0.7-1-1.5-1.5-2.2c-0.9-1.5-1.8-3-2.6-4.6
					c-0.6-1.3-2.6-1.8-3.8-1c-1.4,0.9-1.7,2.4-1,3.8c3.4,6.9,8.4,12.8,14.4,17.4c5.8,4.4,12.6,7.4,19.6,8.8c7.4,1.5,15,1.3,22.3-0.6
					c7.5-2,14.4-5.8,20.2-10.9c5.6-5,9.8-11.3,12.7-18.2c2.7-6.7,3.9-14,3.4-21.2c-0.5-7.7-2.8-15.2-6.7-21.8
					c-3.8-6.7-9.2-12.2-15.6-16.3c-6.2-4-13.4-6.4-20.7-7.4s-14.8-0.1-21.7,2.4c-1.9,0.7-3.8,1.5-5.6,2.4c-1.3,0.6-1.8,2.6-1,3.8
					C39.5,18.6,41.1,18.9,42.5,18.2L42.5,18.2z"/>
			</g>
		</g>
	</g>
	<circle class="st2" cx="61.3" cy="57.2" r="24"/>
	<circle class="st2" cx="61.3" cy="57.2" r="8.1"/>
	<circle class="st3" cx="57.5" cy="41.5" r="2.5"/>
	<circle class="st3" cx="75.1" cy="49" r="2.5"/>
	<circle class="st3" cx="75.1" cy="66.6" r="2.5"/>
	<circle class="st3" cx="56.3" cy="72.9" r="2.5"/>
	<circle class="st3" cx="44.9" cy="56.6" r="2.5"/>
	<g id="freno_00000003823292068295968170000007462397097301753016_">
		<path class="st2" d="M7.3,75.6C5.1,68.2-5.3,34.6,30,13.3c0.6-0.4,1.3-0.2,1.6,0.4L42,29c0.3,0.6,0.1,1.2-0.4,1.6
			c-4.3,2.8-21.2,15.2-14.7,37.5c0.2,0.9-0.2,1.7-1.1,2L9.4,76.6C8.5,76.9,7.6,76.4,7.3,75.6z"/>
	</g>
	<path class="st2" d="M39,15.3c0,0,20.2-12.7,44.9,0.7S108,58,108,58s1,32-32.6,44.4c0,0-28.9,10.5-50-13.3c0,0-6.6-7.3-7.4-10.8"/>
</g>
<g id="Capa_2">
</g>
<g id="Capa_3">
</g>
</svg>
